<svg xmlns="http://www.w3.org/2000/svg" xmlns:xlink="http://www.w3.org/1999/xlink" viewBox="0 0 200 101.91"><defs><clipPath id="a" transform="translate(0 0.27)"><path d="M85.64,89.49c.51-.28.94-3,1.5-3.35s.69,2.19.69,2.19,9.74-.5,8.41.75c-3.84,3.58-14.31,7.67-14.31,7.67-2.59-2.21-.93-5.33-.93-5.33S84,91.43,85.64,89.49Z" fill="none"/></clipPath><clipPath id="b" transform="translate(0 0.27)"><path d="M67.31,92.61c.57.06,2.5-1.91,3.15-1.87s-.69,2.18-.69,2.18,8.25,5.2,6.44,5.45c-5.2.72-16.12-2-16.12-2-.84-3.29,2.31-4.89,2.31-4.89S64.88,93.29,67.31,92.61Z" fill="none"/></clipPath><clipPath id="c" transform="translate(0 0.27)"><path d="M156.88,80.45c.16.55,2.72,1.59,2.92,2.22s-2.27.17-2.27.17-1.7,9.61-2.62,8c-2.63-4.54-4.28-15.66-4.28-15.66,2.73-2,5.4.29,5.4.29S155.34,78.46,156.88,80.45Z" fill="none"/></clipPath><clipPath id="e" transform="translate(0 0.27)"><path d="M161.93,65.46c-3.43.52-11.43-2.95-12.16-4.4-1.11-2.17,2.15-7.05,2.88-8.52a1.85,1.85,0,0,1,2-1.14s3.07-9,7-11.65,9.48,1.15,9.48,1.15c1.94.41-.34,3.57-.62,4.29s-2.6,10.45-4.52,14.87S163.51,65.49,161.93,65.46Z" fill="none"/></clipPath><clipPath id="f" transform="translate(0 0.27)"><path d="M183.7,91.6c.52-.24,1.21-2.91,1.8-3.2s.48,2.24.48,2.24,9.75.38,8.31,1.5c-4.15,3.22-14.94,6.36-14.94,6.36-2.38-2.44-.45-5.4-.45-5.4S181.93,93.39,183.7,91.6Z" fill="none"/></clipPath></defs><title>children</title><g style="isolation:isolate"><path d="M47.69,96c0,2.7-10.08,4.89-22.51,4.89S2.68,98.71,2.68,96s10.07-4.88,22.5-4.88S47.69,93.32,47.69,96Z" transform="translate(0 0.27)" fill="#a6c459" opacity="0.45" style="mix-blend-mode:multiply"/><path d="M34.29,48.74C33.14,46.15,29.6,42.84,23,42.1A19.21,19.21,0,0,0,19.49,42L18,44.14s11.31-1.07,13.84,6.52c1.39,4.16-1.52,14.39-17.18,5.29l-1.15,2.89s8.8,6.47,16.07,4C35.36,60.9,36.48,53.61,34.29,48.74Z" transform="translate(0 0.27)" fill="#fdc63e"/><path d="M35.92,53.21A.77.77,0,0,0,35.19,52c.38-.36,1-.62,1-1.25s-.87-.58-1.38-.66c.43-.39,1-.61,1.07-1.29.15-1-1.13-.74-1.72-.55.37-.33,1.41-1.15.67-1.68s-2,0-2.55.4c-.76.47-1.41,1.66-.69,2s2-.38,2-.38-2,1.14-1.39,1.86,1.66.07,1.66.07-1.63,1-1.12,1.76,1.63.08,1.63.08-1.71.81-1.23,1.6S35.22,53.94,35.92,53.21Z" transform="translate(0 0.27)" fill="#dbad8e"/><path d="M27.4,59c-3.44-.36-5-3.62-7.36-13.29L25,44.54c1.5,4.59,2.51,8,3.29,8.37,0,0,2.13-1.64,5.3-3.62,0,0,2.66,2.51,2.89,4.24a51.23,51.23,0,0,0-4.39,3.29A7.06,7.06,0,0,1,27.4,59Z" transform="translate(0 0.27)" fill="#edc3a6"/><path d="M20.28,52.23c-.85-3.32-2.47-7.42,2-8.61s5.7,6.12,5.7,6.12A24.64,24.64,0,0,1,20.28,52.23Z" transform="translate(0 0.27)" fill="#3389d9"/><path d="M21.2,43.3c-1,.59-4.31,2.38-7,8.92-2.87,7.09-3.6,11.06-3.48,13.18C2.87,65.47.31,61.86.31,61.86c-.42-4,.92-6.73,5.43-14.6a13.5,13.5,0,0,1,5-5c1.41-.83,11.3.4,11.3.4Z" transform="translate(0 0.27)" fill="#fdc641"/><path d="M21.86,42.79c.23-.52-2.56,0-3.66.77s-2.14,1.21-4.38,7.9c-2.49,7.41-2.69,8.53-3.4,13.94a18.65,18.65,0,0,0,6.42-.94S21.54,43.5,21.86,42.79Z" transform="translate(0 0.27)" fill="#256a9c"/><path d="M8.45,43.53a13.88,13.88,0,0,0-4.38,6.19A22.3,22.3,0,0,0,10.31,51s1.9-5.56,2.52-6.8C12.83,44.21,9.6,42.87,8.45,43.53Z" transform="translate(0 0.27)" fill="#3389d9"/><path d="M3,52.05a18,18,0,0,0-3,8A21.25,21.25,0,0,0,6.94,62s2-6.9,2.48-8.76C9.42,53.22,5.17,52.6,3,52.05Z" transform="translate(0 0.27)" fill="#3389d9"/><path d="M24.54,70.25l-7.65-.15c0,.07,3.51,8.83-2.21,19.71l6.77.68a37.85,37.85,0,0,0,3.67-13.27A19.27,19.27,0,0,0,24.54,70.25Z" transform="translate(0 0.27)" fill="#edc3a6"/><path d="M39.59,82.67l-5.92-2.35a75.1,75.1,0,0,0,2.91-8.72c-1,.06-2.21.24-2.94.35s-1.26.19-1.82.25l-.67-6.34c.46,0,1-.13,1.56-.21,3.1-.46,6.62-1,8.85.9A4.52,4.52,0,0,1,43.18,70C43.26,73.13,40.45,80.49,39.59,82.67Z" transform="translate(0 0.27)" fill="#edc3a6"/><path d="M28.07,65c1.9.35,6.6-1.14,9-.83,0,0-2.78,6.26-3.46,8.81a35.63,35.63,0,0,0-5.24.9,3.48,3.48,0,0,1-2.55-.29Z" transform="translate(0 0.27)" fill="#c95227"/><path d="M14.42,63.3c-1,4.16,1.59,7.79,1.15,12,3,.89,7.78,1.42,10.88.62A41.06,41.06,0,0,0,29.61,63.3Z" transform="translate(0 0.27)" fill="#e86126"/><path d="M26.41,73.13s4.9-5,5.69-8.85l-5.69.15Z" transform="translate(0 0.27)" fill="#e86126"/><polygon points="22.57 38.5 20.52 43.65 28.2 45.08 30.52 39.33 22.57 38.5" fill="#edc3a6"/><path d="M41.42,29.4c0,8.67-6.57,11.45-15.33,11.45-7.35,0-15.86-4.91-15.86-13.57s5.28-13,13.92-14.49c6.9-1.15,13.71,2.87,14.5,12.35C38.65,25.14,46.66,25.59,41.42,29.4Z" transform="translate(0 0.27)" fill="#edc3a6"/><path d="M35.46,26.63a.83.83,0,1,1-.83-.82A.83.83,0,0,1,35.46,26.63Z" transform="translate(0 0.27)" fill="#8a6449"/><path d="M35.87,31.85a4.12,4.12,0,0,0,5.16.88" transform="translate(0 0.27)" fill="none" stroke="#8a6449" stroke-linecap="round" stroke-linejoin="round"/><path d="M19.86,40.35C9.62,35.77,9,28.58,9.2,23.76s3.54-6,3.54-6,7-7.3,16.28-5.57S39.41,23,39.41,23c-2.39.75-12.62,1-12.62,1A20.74,20.74,0,0,1,28,29.82l-2.83.84S25.21,35.57,19.86,40.35Z" transform="translate(0 0.27)" fill="#8a6449"/><path d="M27.18,30c-1.47-1.61-5-2.46-5.48.42-.49,2.6,3.87,5,5.55,3" transform="translate(0 0.27)" fill="#edc3a6"/><path d="M39.08,20.92A258,258,0,0,1,9.45,29.43S4.87,15.71,20.59,11.72C37.12,7.53,39.08,20.92,39.08,20.92Z" transform="translate(0 0.27)" fill="#e86126"/><path d="M37.76,17.2s16.11-4.42,12.58-1.52c-1.73,1.51-6.19,3.44-11.66,5.39-3.07,1.06-4.87,1.65-4.87,1.65S34.39,20.26,37.76,17.2Z" transform="translate(0 0.27)" fill="#fdc641"/><path d="M25.84,67.1a40.35,40.35,0,0,1-13.37-2.91,55.57,55.57,0,0,0,3.9-13.71c.53-3.37,3.22-7.1,4.39-7.71a52.47,52.47,0,0,0,7.65,1.52s3.39,10.11,3.9,19c.32.4.52,1.35-.4,1.5A9.33,9.33,0,0,0,29,66.4,7.51,7.51,0,0,1,25.84,67.1Z" transform="translate(0 0.27)" fill="#5ccacc"/><polygon points="15.06 88.47 22.29 89.19 19.63 94.56 12.77 94.33 15.06 88.47" fill="#daeefd"/><path d="M18.31,93.21c.58,0,2.28-2.18,2.94-2.2s-.46,2.24-.46,2.24,8.76,4.29,7,4.73c-5.09,1.28-16.24-.22-16.24-.22-1.19-3.18,1.78-5.11,1.78-5.11S16,94.13,18.31,93.21Z" transform="translate(0 0.27)" fill="#e86126"/><path d="M21.07,93a4.72,4.72,0,0,0-1.16,1.28.63.63,0,0,0,1.08.63,3.92,3.92,0,0,1,1-1c.63-.5-.26-1.38-.89-.89Z" transform="translate(0 0.27)" fill="#daeefd"/><path d="M22.38,93.56a4.58,4.58,0,0,0-1.16,1.28.63.63,0,0,0,1.08.63,3.77,3.77,0,0,1,1-1c.63-.49-.26-1.37-.88-.88Z" transform="translate(0 0.27)" fill="#daeefd"/><path d="M23.66,94.13a4.72,4.72,0,0,0-1.16,1.28.63.63,0,0,0,1.08.63,3.92,3.92,0,0,1,1-1c.63-.5-.26-1.38-.89-.89Z" transform="translate(0 0.27)" fill="#daeefd"/><path d="M24.74,94.71a3.93,3.93,0,0,0-1,1.13.63.63,0,0,0,1.08.63,3.16,3.16,0,0,1,.83-.88c.63-.5-.26-1.38-.89-.88Z" transform="translate(0 0.27)" fill="#daeefd"/><polygon points="33.87 79.22 41.1 79.94 38.44 85.31 31.58 85.08 33.87 79.22" fill="#daeefd"/><path d="M37.13,84c.57,0,2.28-2.18,2.93-2.2S39.6,84,39.6,84s8.76,4.29,7,4.73c-5.09,1.28-16.23-.22-16.23-.22-1.2-3.18,1.77-5.11,1.77-5.11S34.78,84.89,37.13,84Z" transform="translate(0 0.27)" fill="#e86126"/><path d="M39.89,83.74A4.54,4.54,0,0,0,38.73,85a.63.63,0,0,0,1.08.63,3.88,3.88,0,0,1,1-1c.63-.5-.26-1.38-.88-.88Z" transform="translate(0 0.27)" fill="#daeefd"/><path d="M41.19,84.31A4.72,4.72,0,0,0,40,85.59a.63.63,0,0,0,1.08.63,3.8,3.8,0,0,1,1-1c.63-.49-.26-1.37-.89-.88Z" transform="translate(0 0.27)" fill="#daeefd"/><path d="M42.48,84.89a4.54,4.54,0,0,0-1.16,1.27.63.63,0,0,0,1.08.63,3.88,3.88,0,0,1,1-1c.63-.5-.26-1.38-.88-.88Z" transform="translate(0 0.27)" fill="#daeefd"/><path d="M43.56,85.46a4.11,4.11,0,0,0-1,1.13.63.63,0,0,0,1.08.64,3.17,3.17,0,0,1,.83-.88c.63-.5-.26-1.38-.88-.89Z" transform="translate(0 0.27)" fill="#daeefd"/><path d="M33.23,50.38c-1.16-2.59-4.69-5.9-11.32-6.64a19.08,19.08,0,0,0-3.48-.06L17,45.78s11.31-1.06,13.84,6.53c1.38,4.15-1.52,14.38-17.18,5.29l-1.15,2.88s8.8,6.47,16.07,4C34.29,62.54,35.41,55.26,33.23,50.38Z" transform="translate(0 0.27)" fill="#fdd76e"/><path d="M26.34,60.67C22.9,60.3,21.29,57,19,47.37l5-1.18c1.49,4.58,2.51,8,3.29,8.37,0,0,2.13-1.65,5.3-3.63,0,0,2.66,2.51,2.89,4.24A51.23,51.23,0,0,0,31,58.46,7.07,7.07,0,0,1,26.34,60.67Z" transform="translate(0 0.27)" fill="#edc3a6"/><path d="M19.22,53.87c-.85-3.32-2.47-7.42,2-8.61s5.7,6.12,5.7,6.12A24.35,24.35,0,0,1,19.22,53.87Z" transform="translate(0 0.27)" fill="#3389d9"/><path d="M36.9,54.32a.77.77,0,0,0-1-1c.29-.43.83-.81.7-1.43s-1-.38-1.49-.36c.34-.47.82-.8.78-1.48-.05-1-1.25-.5-1.8-.19.31-.4,1.16-1.42.32-1.78s-1.88.51-2.41.91a7.66,7.66,0,0,0-2.8,5.4S30.5,56.81,31.46,57A7.88,7.88,0,0,0,36.9,54.32Z" transform="translate(0 0.27)" fill="#edc3a6"/><path d="M33.23,50.38c-1.16-2.59-4.69-5.9-11.32-6.64a19.08,19.08,0,0,0-3.48-.06L17,45.78s11.31-1.06,13.84,6.53c1.38,4.15-1.52,14.38-17.18,5.29l-1.15,2.88s8.8,6.47,16.07,4C34.29,62.54,35.41,55.26,33.23,50.38Z" transform="translate(0 0.27)" fill="#fdd76e"/><path d="M26.34,60.67C22.9,60.3,21.29,57,19,47.37l5-1.18c1.49,4.58,2.51,8,3.29,8.37,0,0,2.13-1.65,5.3-3.63,0,0,2.66,2.51,2.89,4.24A51.23,51.23,0,0,0,31,58.46,7.07,7.07,0,0,1,26.34,60.67Z" transform="translate(0 0.27)" fill="#edc3a6"/><path d="M19.22,53.87c-.85-3.32-2.47-7.42,2-8.61s5.7,6.12,5.7,6.12A24.35,24.35,0,0,1,19.22,53.87Z" transform="translate(0 0.27)" fill="#5ccacc"/><path d="M36.9,54.32a.77.77,0,0,0-1-1c.29-.43.83-.81.7-1.43s-1-.38-1.49-.36c.34-.47.82-.8.78-1.48-.05-1-1.25-.5-1.8-.19.31-.4,1.16-1.42.32-1.78s-1.88.51-2.41.91a7.66,7.66,0,0,0-2.8,5.4S30.5,56.81,31.46,57A7.88,7.88,0,0,0,36.9,54.32Z" transform="translate(0 0.27)" fill="#edc3a6"/><path d="M19.06,53.87c-.85-3.32-2.47-7.42,2-8.61s5.7,6.12,5.7,6.12A24.35,24.35,0,0,1,19.06,53.87Z" transform="translate(0 0.27)" fill="none" stroke="#47a8a8" stroke-miterlimit="10"/><path d="M98,96c0,2.7-10.08,4.89-22.51,4.89S52.94,98.71,52.94,96,63,91.13,75.45,91.13,98,93.32,98,96Z" transform="translate(0 0.27)" fill="#a6c459" opacity="0.45" style="mix-blend-mode:multiply"/><path d="M86.38,48.58c-1.16-2.59-4.7-5.9-11.32-6.64a19.08,19.08,0,0,0-3.48-.06L70.1,44s11.32-1.07,13.84,6.52c1.39,4.16-1.52,14.39-17.17,5.29l-1.16,2.89s8.8,6.47,16.07,4C87.44,60.74,88.56,53.46,86.38,48.58Z" transform="translate(0 0.27)" fill="#d55081"/><path d="M88.43,52.38a.77.77,0,0,0-.93-1.09c.31-.42.86-.78.75-1.41s-1-.42-1.47-.41c.35-.46.84-.77.83-1.45,0-1-1.23-.54-1.79-.26.32-.39,1.2-1.37.38-1.76s-1.94.38-2.44.82c-.67.6-1.11,1.87-.35,2.06s1.94-.73,1.94-.73-1.76,1.46-1,2.07S86,50,86,50s-1.44,1.27-.81,1.92,1.62-.19,1.62-.19-1.54,1.09-.93,1.78S87.87,53.22,88.43,52.38Z" transform="translate(0 0.27)" fill="#dbad8e"/><path d="M79.48,58.87c-3.44-.37-5-3.63-7.36-13.3l4.94-1.19c1.5,4.59,2.51,8,3.29,8.37,0,0,2.13-1.64,5.3-3.62,0,0,2.66,2.51,2.89,4.24a51.23,51.23,0,0,0-4.39,3.29A7.07,7.07,0,0,1,79.48,58.87Z" transform="translate(0 0.27)" fill="#edc3a6"/><path d="M72.36,52.07c-.85-3.32-2.47-7.42,2-8.61S80,49.58,80,49.58A24.64,24.64,0,0,1,72.36,52.07Z" transform="translate(0 0.27)" fill="#3389d9"/><path d="M79.94,66.39,73.18,70s7.35,6,7.64,18.31l6.25-2.7a37.74,37.74,0,0,0-3.24-13.37A19,19,0,0,0,79.94,66.39Z" transform="translate(0 0.27)" fill="#edc3a6"/><polygon points="80.36 86.96 87.03 84.07 87.32 90.06 81.21 93.2 80.36 86.96" fill="#fd6e99"/><path d="M85.64,89.49c.51-.28.94-3,1.5-3.35s.69,2.19.69,2.19,9.74-.5,8.41.75c-3.84,3.58-14.31,7.67-14.31,7.67-2.59-2.21-.93-5.33-.93-5.33S84,91.43,85.64,89.49Z" transform="translate(0 0.27)" fill="#fdc641"/><path d="M88.25,88a4.45,4.45,0,0,0-.4,1.69c0,.42.65.36.66-.06a3.64,3.64,0,0,1,.34-1.36.33.33,0,0,0-.6-.27Z" transform="translate(0 0.27)" fill="#d55081"/><path d="M89.67,87.86a4.45,4.45,0,0,0-.4,1.69c0,.42.65.36.66-.06a3.64,3.64,0,0,1,.34-1.36c.16-.38-.43-.66-.6-.27Z" transform="translate(0 0.27)" fill="#d55081"/><path d="M91.07,87.74a4.45,4.45,0,0,0-.4,1.69c0,.42.66.36.66-.06A3.64,3.64,0,0,1,91.67,88a.33.33,0,0,0-.6-.27Z" transform="translate(0 0.27)" fill="#d55081"/><path d="M92.3,87.72a3.89,3.89,0,0,0-.36,1.5.34.34,0,0,0,.36.3.34.34,0,0,0,.3-.36A2.93,2.93,0,0,1,92.9,88c.16-.4-.44-.67-.6-.28Z" transform="translate(0 0.27)" fill="#d55081"/><g clip-path="url(#a)"><path d="M82.79,97.37c.29-.54,1.44-4.4,2.14-4.6,1.44-.43.1,3.22,0,3.59Z" transform="translate(0 0.27)" fill="#d55081"/><path d="M85.06,96.62c.29-.55,1.44-4.41,2.14-4.61,1.44-.43.09,3.22,0,3.59Z" transform="translate(0 0.27)" fill="#d55081"/><path d="M87.34,96c.29-.54,1.44-4.4,2.14-4.6,1.44-.43.09,3.22,0,3.59Z" transform="translate(0 0.27)" fill="#d55081"/></g><path d="M68.18,66.14c1.17,4.11,5.18,6,6.85,10,3.06-.69,7.49-2.54,9.81-4.74a40.94,40.94,0,0,0-3.38-12.6Z" transform="translate(0 0.27)" fill="#bf4678"/><path d="M78.49,71.85s4.9-5,5.69-8.85l-5.69.16Z" transform="translate(0 0.27)" fill="#d55081"/><path d="M76,70.45l-7.59-1c0,.07,2.55,9.15-4.3,19.36l6.66,1.39a37.7,37.7,0,0,0,5.06-12.79A19.31,19.31,0,0,0,76,70.45Z" transform="translate(0 0.27)" fill="#edc3a6"/><path d="M66.63,62.47c-1.41,4,.75,7.91-.14,12.08,2.89,1.2,7.59,2.24,10.75,1.78a41.28,41.28,0,0,0,4.49-12.24Z" transform="translate(0 0.27)" fill="#d55081"/><polygon points="64.61 87.56 71.72 89.04 68.5 94.1 61.7 93.14 64.61 87.56" fill="#fd6e99"/><path d="M67.31,92.61c.57.06,2.5-1.91,3.15-1.87s-.69,2.18-.69,2.18,8.25,5.2,6.44,5.45c-5.2.72-16.12-2-16.12-2-.84-3.29,2.31-4.89,2.31-4.89S64.88,93.29,67.31,92.61Z" transform="translate(0 0.27)" fill="#fdc641"/><path d="M70.3,92.89A4.31,4.31,0,0,0,69,94c-.25.34.32.67.57.33a3.44,3.44,0,0,1,1.06-.91c.36-.23,0-.8-.34-.57Z" transform="translate(0 0.27)" fill="#d55081"/><path d="M71.54,93.6a4.47,4.47,0,0,0-1.3,1.15c-.24.34.33.67.57.33a3.56,3.56,0,0,1,1.06-.91c.36-.22,0-.79-.33-.57Z" transform="translate(0 0.27)" fill="#d55081"/><path d="M72.76,94.31a4.47,4.47,0,0,0-1.3,1.15c-.25.34.32.67.57.33a3.56,3.56,0,0,1,1.06-.91c.36-.23,0-.8-.33-.57Z" transform="translate(0 0.27)" fill="#d55081"/><path d="M73.77,95a3.74,3.74,0,0,0-1.15,1,.32.32,0,0,0,.12.45.35.35,0,0,0,.45-.12,3.09,3.09,0,0,1,.91-.78c.36-.23,0-.8-.33-.57Z" transform="translate(0 0.27)" fill="#d55081"/><g clip-path="url(#b)"><path d="M60.44,97.42c.55-.27,3.71-2.77,4.4-2.53,1.43.48-1.77,2.69-2.06,2.94Z" transform="translate(0 0.27)" fill="#d55081"/><path d="M62.73,98.11c.55-.28,3.72-2.77,4.4-2.53,1.43.47-1.77,2.68-2.06,2.94Z" transform="translate(0 0.27)" fill="#d55081"/><path d="M65,98.9c.55-.27,3.72-2.77,4.4-2.53,1.43.48-1.77,2.69-2.06,2.94Z" transform="translate(0 0.27)" fill="#d55081"/></g><path d="M70.78,10.12c.61-2,1-4.29-.38-6.22a3.54,3.54,0,0,0-3.51-1.49c-.52.18-1.82.75-1.46,1.53-.81-2-2.84-4.5-5.25-4.16-1.09.16-2.89,1-3.35,2.07s.27,1.83.64,2.64a3.51,3.51,0,0,0-3,2.53,3,3,0,0,0,.34,2.2c.3.66.78.89,1.2,1.38-1.32,1.06-2,2.48-.94,4.06,1.4,2,5,3.14,7.44,2.56A11.73,11.73,0,0,0,70.78,10.12Z" transform="translate(0 0.27)" fill="#e68f28"/><path d="M56.49,11.28c-.49.13-.67.17-.92.66s-1.07,2.19-.12,2.36,2-1.08,2.22-1.94-.27-1.69-1.18-1.18-1.18,2.59-.75,3.36c.8,1.45,3-.13,3.56-1s.51-1.79-.76-1.61c-1.43.2-1.67,2.4-1.36,3.51.38,1.37,2,1.46,3.15.94.76-.34,2.35-2.86.91-3.15C60,13,59.76,15.1,60.05,15.88a1.9,1.9,0,0,0,3.21.31c.79-1.09,1.14-3.47-.28-4.25-1.81-1-1.79,2.19-1.43,3.15.63,1.65,2.6,1.53,3.77.5,1.36-1.2.85-3.06-.44-4.07-1.08-.85-2.24-.76-2.06.84.22,1.89,1.81,3.25,3.65,2.28C67.65,14,69,12.33,68,11c-.25-.32-1.05-1-1.51-.9a.7.7,0,0,0-.29,1.1c.63.86,1.69-.15,1.71-.92,0-1.56-2.85-2.12-4-2.24-1.34-.15-3.68.13-3.84,1.85a2,2,0,0,0,2.68,2.18c1.2-.51,2-2,1-3-1.4-1.35-3.37-1.52-4.53.15-.62.89-1.63,3.38-.37,4.19,1.5,1,3.8-1.12,4-2.57S60.8,8,59.44,7.82s-3,.73-2.83,2.27,2.39.16,2.84-.53c1-1.53-.75-2.84-2.14-3.16a2.2,2.2,0,0,0-2.38,1.46,1.58,1.58,0,0,0,0,1.45c.43.72,1.48.33,2.08,0C58,8.82,60.1,6.88,59,5.59c-.78-.93-3-1.1-3.54.11-.46,1,.47,1.84,1.41,2,1.53.23,3.59-1.31,4-2.78C61.17,4,60.52,2.55,59.35,3c-.35.12-.56.33-.33.7s1.24.37,1.65.25a1.71,1.71,0,0,0,1.06-2.68A3.13,3.13,0,0,0,57.55.31a2,2,0,0,0-.28,3c1.34,1.11,4.12.09,5.23-.91.8-.73,1.08-2-.37-2-1.63,0-2.74,2-2.69,3.5.06,1.74,1.74,2.16,3.21,1.75.8-.23,2.93-1.84,1.22-2.39-1.45-.47-2.73.77-3.11,2.06-.55,1.89.68,2.87,2.51,2.39,1.24-.32,3.21-1.45,3.12-3s-2.28-.95-2.89,0c-.72,1.06-1,3.52.3,4.27,1.48.84,3.55-.39,4.22-1.77s-.73-1.78-1.78-1.15-2.79,3.34-1.87,4.67,2.9.41,3.71-.42c.51-.53,1.57-2.56,0-2.54-1.31,0-1.74,2.32-1.54,3.27a1.79,1.79,0,0,0,3,.89,4.13,4.13,0,0,0,1.44-4.07c-.23-.66-2.34-3-3-1.77-.6,1.1,1.25,1.78,2,1.45,1.14-.49,1-1.95.51-2.88a3,3,0,0,0-4.86-.54c-1.24,1.49,1.21,3.32,2.63,3a2.13,2.13,0,0,0,1.19-3.41c-.81-.81-3.23-1.41-4.16-.5" transform="translate(0 0.27)" fill="none" stroke="#b4451d" stroke-miterlimit="10" stroke-width="0.25"/><path d="M63.4,18.78c2.18-3.4,5.65-5.05,8.8-7.36,2.07-1.52-.33-4.69-2.4-3.17a54.9,54.9,0,0,0-9.53,8.07C58.56,18.2,62,20.94,63.4,18.78Z" transform="translate(0 0.27)" fill="#d55081"/><path d="M73.28,42c-1,.59-4.31,2.38-7,8.92C63.45,58,62.72,62,62.84,64.13c-7.89.07-10.45-3.55-10.45-3.55-.42-4,.93-6.72,5.43-14.59a13.57,13.57,0,0,1,5-5c1.41-.83,11.3.4,11.3.4Z" transform="translate(0 0.27)" fill="#6bbf96"/><path d="M73.94,41.52c.23-.52-2.56,0-3.66.77s-2.13,1.21-4.38,7.9c-2.48,7.41-2.69,8.52-3.4,13.94a18.65,18.65,0,0,0,6.42-.94S73.62,42.23,73.94,41.52Z" transform="translate(0 0.27)" fill="#55a278"/><path d="M60.53,42.26a13.88,13.88,0,0,0-4.38,6.19,22.3,22.3,0,0,0,6.24,1.29s1.9-5.56,2.52-6.8C64.91,42.94,61.68,41.6,60.53,42.26Z" transform="translate(0 0.27)" fill="#fd6e99"/><path d="M55.11,60a23.91,23.91,0,0,1-3-1.14,18,18,0,0,1,3-8s1.82-.35,2.13,1.14S55.11,60,55.11,60Z" transform="translate(0 0.27)" fill="#d55081"/><path d="M56.61,60.34s1,.77,4.21,1c0,0,.64-3,1-5.35s-.29-2.83-1.62-3S58.07,52.54,56.61,60.34Z" transform="translate(0 0.27)" fill="#d55081"/><path d="M60.3,60.63A10.3,10.3,0,0,1,57.35,60c1.09-5.7,1.8-6.44,2.29-6.44a3,3,0,0,1,.47.05c.59.09.89.21,1,.42a2.8,2.8,0,0,1,.08,1.86C60.93,57.55,60.5,59.64,60.3,60.63Z" transform="translate(0 0.27)" fill="none" stroke="#80d6af" stroke-linecap="round" stroke-linejoin="round" stroke-width="0.5"/><polygon points="74.65 37.23 72.61 42.37 80.28 43.81 82.6 38.06 74.65 37.23" fill="#edc3a6"/><path d="M93.5,28.13c0,8.67-6.57,11.45-15.33,11.45-7.35,0-15.86-4.91-15.86-13.57s5.28-13,13.92-14.49c6.9-1.15,14.48,3,15.26,12.42C91.49,23.94,96.73,25.17,93.5,28.13Z" transform="translate(0 0.27)" fill="#edc3a6"/><path d="M86,28.05a.39.39,0,0,1-.39.39.4.4,0,0,1,0-.79A.39.39,0,0,1,86,28.05Z" transform="translate(0 0.27)" fill="#e3a67f"/><path d="M87.77,28.05a.39.39,0,0,1-.39.39.4.4,0,0,1,0-.79A.39.39,0,0,1,87.77,28.05Z" transform="translate(0 0.27)" fill="#e3a67f"/><path d="M86.83,28.7a.27.27,0,1,1-.53,0,.27.27,0,0,1,.53,0Z" transform="translate(0 0.27)" fill="#e3a67f"/><path d="M88.31,29.16a.27.27,0,1,1-.27-.27A.27.27,0,0,1,88.31,29.16Z" transform="translate(0 0.27)" fill="#e3a67f"/><path d="M88.93,27.92a.27.27,0,1,1-.26-.27A.27.27,0,0,1,88.93,27.92Z" transform="translate(0 0.27)" fill="#e3a67f"/><path d="M85.89,29.22a.2.2,0,0,1-.2.21.21.21,0,1,1,0-.41A.2.2,0,0,1,85.89,29.22Z" transform="translate(0 0.27)" fill="#e3a67f"/><path d="M86.71,27.65a.21.21,0,0,1-.21.21.2.2,0,0,1-.2-.21.2.2,0,0,1,.2-.2A.2.2,0,0,1,86.71,27.65Z" transform="translate(0 0.27)" fill="#e3a67f"/><path d="M87.54,25.36a.83.83,0,1,1-.83-.82A.83.83,0,0,1,87.54,25.36Z" transform="translate(0 0.27)" fill="#8a6449"/><path d="M77.92,65.83a40.35,40.35,0,0,1-13.37-2.91,55.17,55.17,0,0,0,3.9-13.72c.53-3.36,3.22-7.09,4.39-7.7A52.47,52.47,0,0,0,80.49,43s3.39,10.11,3.9,19c.32.4.52,1.34-.4,1.49a9.33,9.33,0,0,0-2.92,1.61A7.46,7.46,0,0,1,77.92,65.83Z" transform="translate(0 0.27)" fill="#893da8"/><path d="M85.31,49.11c-1.15-2.59-4.69-5.9-11.31-6.64a19.21,19.21,0,0,0-3.49-.06L69,44.51S80.35,43.44,82.88,51c1.38,4.16-1.52,14.39-17.18,5.3l-1.15,2.88s8.8,6.47,16.07,4C86.38,61.27,87.49,54,85.31,49.11Z" transform="translate(0 0.27)" fill="#fdd76e"/><path d="M78.42,59.4c-3.44-.37-5-3.63-7.36-13.3L76,44.91c1.49,4.59,2.51,8,3.29,8.37,0,0,2.13-1.64,5.3-3.62,0,0,2.66,2.51,2.89,4.24a51.23,51.23,0,0,0-4.39,3.29A7.07,7.07,0,0,1,78.42,59.4Z" transform="translate(0 0.27)" fill="#edc3a6"/><path d="M71.3,52.6c-.85-3.32-2.47-7.42,2-8.61S79,50.11,79,50.11A24.35,24.35,0,0,1,71.3,52.6Z" transform="translate(0 0.27)" fill="#3389d9"/><path d="M89,53.05a.77.77,0,0,0-1-1c.3-.43.83-.81.7-1.43s-1-.39-1.49-.36c.34-.47.82-.8.79-1.48-.05-1-1.26-.5-1.8-.19.3-.4,1.15-1.42.31-1.78s-1.88.51-2.41.91a7.65,7.65,0,0,0-2.8,5.39s1.27,2.48,2.23,2.69A7.88,7.88,0,0,0,89,53.05Z" transform="translate(0 0.27)" fill="#edc3a6"/><path d="M85.31,49.11c-1.15-2.59-4.69-5.9-11.31-6.64a19.21,19.21,0,0,0-3.49-.06L69,44.51S80.35,43.44,82.88,51c1.38,4.16-1.52,14.39-17.18,5.3l-1.15,2.88s8.8,6.47,16.07,4C86.38,61.27,87.49,54,85.31,49.11Z" transform="translate(0 0.27)" fill="#fd6e99"/><path d="M78.42,59.4c-3.44-.37-5-3.63-7.36-13.3L76,44.91c1.49,4.59,2.51,8,3.29,8.37,0,0,2.13-1.64,5.3-3.62,0,0,2.66,2.51,2.89,4.24a51.23,51.23,0,0,0-4.39,3.29A7.07,7.07,0,0,1,78.42,59.4Z" transform="translate(0 0.27)" fill="#edc3a6"/><path d="M71.3,52.6c-.85-3.32-2.47-7.42,2-8.61S79,50.11,79,50.11A24.35,24.35,0,0,1,71.3,52.6Z" transform="translate(0 0.27)" fill="#893da8"/><path d="M89,53.05a.77.77,0,0,0-1-1c.3-.43.83-.81.7-1.43s-1-.39-1.49-.36c.34-.47.82-.8.79-1.48-.05-1-1.26-.5-1.8-.19.3-.4,1.15-1.42.31-1.78s-1.88.51-2.41.91a7.65,7.65,0,0,0-2.8,5.39s1.27,2.48,2.23,2.69A7.88,7.88,0,0,0,89,53.05Z" transform="translate(0 0.27)" fill="#edc3a6"/><path d="M71.14,52.6c-.85-3.32-2.47-7.42,2-8.61s5.7,6.12,5.7,6.12A24.35,24.35,0,0,1,71.14,52.6Z" transform="translate(0 0.27)" fill="none" stroke="#9e69ba" stroke-miterlimit="10"/><path d="M89.25,30.58s.34,2.06,3.5,1.4" transform="translate(0 0.27)" fill="none" stroke="#e3a67f" stroke-linecap="round" stroke-linejoin="round"/><path d="M66.77,14c-3.52-1.79-7.3,4.85-5,7.43h0c-3,1.2-2.92,6.51.2,7.44a3.4,3.4,0,0,0-.4,4c.8,1.39,1.66,1.59,3.12,1.66-1.12,2.45,3.39,5.17,5,3.78h0c3,3.25,10.33-2,6.17-6.11,1.33-.39,2.39-2.72,2.39-4a9,9,0,0,0-1.4-4c2.33.19,3.06-2.39,2.66-4.25h0c2.65,1.86,5.44,1.19,5.64-2.46,1.79.4,4.78,2.13,5.37-1.06a2.67,2.67,0,0,0-2.72-3c1.73-3.12-6-6.31-7.78-2.64C80,10.76,70.68,7.62,66.77,14Z" transform="translate(0 0.27)" fill="#e68f28"/><path d="M63.52,22.22c-1.46-.84-2,1.77-.92,2.61,2.52,1.94,3.6-2.32,1.32-2.29-1.76,0-4.59,3-1.79,3.83A1.28,1.28,0,0,0,63.86,25a2.11,2.11,0,0,0-2.66-1.57,2.8,2.8,0,0,0-1.6,2.72c.12,1.57,1.53,2.32,3,2.43,1.19.1,3.28-.73,3.6-2,.29-1.14-1-1.12-1.62-.53s-1.31,1.75-.7,2.59c.87,1.2,3.21.75,4.17-.11a1.24,1.24,0,0,0-.68-2.28c-1.54-.14-3,1.86-3.19,3.2a1.87,1.87,0,0,0,1.5,2.32c1.28.15,1-.71.26-1.27-1-.8-2.46-1.43-3.55-.39a2,2,0,0,0-.1,3.12,2.73,2.73,0,0,0,2.86.32c.76-.43,1.86-1.67,1.1-2.52s-1.37,0-1.59.71C64.2,33.14,65.72,34,67,33.91s3.41-1,3.27-2.54a1.44,1.44,0,0,0-2.49-.85c-.93.82-1.89,2.63-1.58,3.9.22.87,2.21,1.61,2.78.66s-1.38-1.28-2-1.2c-1.15.15-2.48,1.79-2,3s2.21,1.24,3.21,1.12A3,3,0,0,0,71,35.08c0-.86-.49-2.74-1.71-2.31s-1.54,2.38-.6,3a2.37,2.37,0,0,0,3.35-1.13c.32-.77,0-2.4-1.1-1.72-.92.59-1.52,3.08-1.12,4,.53,1.31,2.8,1.67,3.9,1,1.49-.91,1-2.61.47-3.92-.1-.28-.16-.92-.55-.93s-.69,1-.74,1.32c-.17,1.1.48,2.4,1.8,2.13s1.25-2.21.73-3.19c-.64-1.23-1.88-2.64-3.43-2.06-1.18.45-1.67,2,0,2.07a1.32,1.32,0,0,0,1-2.25c-.88-.86-3.61-1.67-4.07.08-.21.79.43.95,1.1.92a4.77,4.77,0,0,0,2.85-1.52,2.48,2.48,0,0,0,.92-2.29c-.09-.54-.5-1.81-1.18-1.91C71,26.24,71,29.24,71.6,30c1.13,1.51,3.89,1,4.73-.58.38-.74-.32-3.07-1.13-2s1,1.72,1.78.87c2.2-2.37-3.4-8-4.75-3.06-.35,1.29-.62,3.85,1.38,3.8,2.25-.07,1-2.48,0-3.33-2-1.75-4-1-5.3,1.06-.34.53-.91,1.42-.46,2.05.6.84,2.34.59,3.11.24,2.11-1,2.23-3.07.59-4.56a3.88,3.88,0,0,0-3.15-1.05c-.62.11-1.83.79-1.75,1.6.18,1.64,3.49.21,4.1-.43,1.62-1.67.4-3.88-1.53-4.55A3.65,3.65,0,0,0,64.71,22c-1.26,2.26,1.62,2.26,3,1.45,1.81-1,2.9-2.77,1.17-4.46-1.28-1.23-2.86-1.35-3.8.28-.24.42-.87,1.7-.55,2.2.74,1.17,2.86-.71,3.08-1.53.47-1.79-1.78-3-3.28-3.06s-2.32,1.52-2.56,2.79c-.28,1.45.5,1.86,1.85,1.26a2.93,2.93,0,0,0,1.51-4.37c-.23-.43-1.31-2.24-1.92-1.48-.21.26,0,.89.09,1.14a2.1,2.1,0,0,0,2.16.8c.73-.09,3.84-1.43,3.39-2.58-.21-.56-2.15-.67-2.52-.22-.52.62.32,2,.78,2.34,1.3,1,3.91.68,4.68-.87.66-1.34-.9-2.26-2.08-1.73-1.58.71-1.9,3.54-1.2,4.9A3.75,3.75,0,0,0,73,20.71,3,3,0,0,0,74.72,19c.19-.61.27-2-.46-2.33C72.73,16,72,19.49,72,20.37a3.42,3.42,0,0,0,3.76,3.57c2.06-.27,1.87-2.78,1.56-4.31-.25-1.2-1-4.07-2.46-2.06-1.75,2.46,2.72,5.72,4.58,3.52,1.21-1.45.13-4.27-.94-5.49a3.27,3.27,0,0,0-2.19-1.2c-.4,0-1.45.06-1.58.6-.29,1.13,1.81,1.33,2.45,1.1,1.73-.61,1.23-2.37,0-3.16s-3.34-1.4-4.65-.66c-.83.47-1.76,2-.63,2.63a2.11,2.11,0,0,0,2.84-1.33c.18-1.51-2.13-2.73-3.4-2.65a4.16,4.16,0,0,0-2.92,2.14c-.74,1.32.1,1.62,1.42,1.66,1.61,0,3.79-.41,4.5-2.07.34-.78.17-3.14-1.15-2.91-.88.15-1.13,1.53-.64,2.12.88,1.08,3.25,1.13,4.35.45.88-.54,1.38-1.86.29-2.52A1.21,1.21,0,0,0,75.39,11c0,2.6,6.09,2.43,5.43.59-.35-1-2-.79-2.55-.12a2.57,2.57,0,0,0,.23,3.1,3,3,0,0,0,3.8.89c1.16-.77.72-2.17-.66-2.28-2.74-.22-4,4.65-1.56,5.84A2.29,2.29,0,0,0,83,17.91a.88.88,0,0,0-1.57-.8,2.36,2.36,0,0,0,0,2.53c.76.94,2.42.59,3.14-.27a4,4,0,0,0,0-4,2,2,0,0,0-2.93,0c-.86.78-.19,1.78.8,2.14a2.19,2.19,0,0,0,3-1.79c.19-.74.26-3.29-.72-3.66s-.8,1.17-.48,1.62c.53.77,3.09,1.51,3.66.45s-1.8-1.54-2.45-1.08-.6,2-.29,2.79A2.38,2.38,0,0,0,87.6,17.3c.84-.15,1.86-.86,1.87-1.78a1.41,1.41,0,0,0-2.39-1.18c-.72.7-1.21,2.11-.41,2.91.51.52,1.9.8,2.26-.06.2-.5-.26-1.18-.46-1.59a11,11,0,0,0-1.34-2.48,4,4,0,0,0-3.28-1.51c1,1,3.13.2,1.7-1.2-.92-.91-4.27-1.3-3.91.66s4,2.27,3.36.06c-.36-1.24-2-1.32-3-1.26-1.39.08-1.5.89-1.71,2.13" transform="translate(0 0.27)" fill="none" stroke="#b4451d" stroke-miterlimit="10" stroke-width="0.25"/><path d="M79.26,28.77c-1.47-1.62-5-2.46-5.48.42-.49,2.6,3.87,5,5.55,3" transform="translate(0 0.27)" fill="#edc3a6"/><path d="M86.09,21.88a5,5,0,0,0-2.41,1.44" transform="translate(0 0.27)" fill="none" stroke="#ca7a22" stroke-linecap="round" stroke-linejoin="round"/><path d="M195.13,96.75c0,2.7-10.08,4.88-22.51,4.88s-22.51-2.18-22.51-4.88,10.08-4.88,22.51-4.88S195.13,94.06,195.13,96.75Z" transform="translate(0 0.27)" fill="#a6c459" opacity="0.45" style="mix-blend-mode:multiply"/><path d="M198.09,35.34a2.62,2.62,0,0,0-1.16-1.67c-.43-.27-.92,1.18-1.43,1.18a3.11,3.11,0,0,0-2.56,1.08c-3,4.75-5.43,7-10.52,7.81a2.65,2.65,0,0,0-.1,5.22,2.83,2.83,0,0,0,.94,0c7.25-1.16,9.92-5.11,13.42-10.58C197.06,37.8,198.24,36,198.09,35.34Z" transform="translate(0 0.27)" fill="#edceb4"/><path d="M183.57,49.76c-2.8.42-6.3,1.42-6.91-2.32s5.49-4.18,5.49-4.18A20.13,20.13,0,0,1,183.57,49.76Z" transform="translate(0 0.27)" fill="#e05267"/><path d="M194.16,38.45a5.91,5.91,0,0,0,3.55-.32c.6-.28,3.57-3.2,1.65-3.12.91-.56,0-2.09-1.12-1.23.62-1.75-.71-1.91-1.68-1.08.54-.64,3.28-3.06,1.51-3.19-2-.14-5.58,3.43-5.49,6.22A3.08,3.08,0,0,0,194.16,38.45Z" transform="translate(0 0.27)" fill="#edceb4"/><path d="M192.58,35.41c-.29-1.11.21-2.75.81-3s1.26.38,1.6.79a1.55,1.55,0,0,1,.31,1.66c-.34.52-.88.12-1-.35" transform="translate(0 0.27)" fill="#edceb4"/><path d="M192.58,35.41c-.29-1.11.21-2.75.81-3s1.26.38,1.6.79a1.55,1.55,0,0,1,.31,1.66c-.34.52-.88.12-1-.35" transform="translate(0 0.27)" fill="none" stroke="#e0ad8b" stroke-linecap="round" stroke-linejoin="round" stroke-width="0.5"/><path d="M199.52,36c0,.16-.34.37-.47.45s-.45.25-.68.09-.08-.4,0-.59.26-.37.37-.58c-.39.26-1.08.49-1.47.15-.23-.2-.13-.4,0-.64a2.27,2.27,0,0,1,.7-.68,3.6,3.6,0,0,1-.62.39,1.38,1.38,0,0,1-1.16,0,1,1,0,0,1-.4-.45c-.1-.35,0-.72.52-1.2" transform="translate(0 0.27)" fill="none" stroke="#e0ad8b" stroke-linecap="round" stroke-linejoin="round" stroke-width="0.5"/><path d="M183.35,37.3c.46,1.79-.47,3.05-.53,4.71a6.34,6.34,0,0,1-2.39-2.19" transform="translate(0 0.27)" fill="#503420"/><path d="M185.28,35.93c.81,1.67.14,3.09.39,4.73A6.3,6.3,0,0,1,182.91,39" transform="translate(0 0.27)" fill="#503420"/><path d="M180.13,68.08l-7.06,3S179.84,77.69,179,90l6.47-2.12a37.58,37.58,0,0,0-2-13.61A19.17,19.17,0,0,0,180.13,68.08Z" transform="translate(0 0.27)" fill="#edceb4"/><polygon points="178.69 88.6 185.6 86.34 185.34 92.33 178.97 94.89 178.69 88.6" fill="#fd8b9c"/><path d="M158.84,82.47l.58-6.35a75.54,75.54,0,0,0,9.19.35c-.33-.92-.85-2-1.16-2.72s-.53-1.16-.75-1.68l5.89-2.43c.18.43.4.92.65,1.44,1.31,2.85,2.8,6.08,1.62,8.75A4.53,4.53,0,0,1,172,82.35C169,83.31,161.17,82.68,158.84,82.47Z" transform="translate(0 0.27)" fill="#edceb4"/><polygon points="160.81 76.21 162.15 83.35 156.24 82.31 154.53 75.66 160.81 76.21" fill="#fd8b9c"/><path d="M156.88,80.45c.16.55,2.72,1.59,2.92,2.22s-2.27.17-2.27.17-1.7,9.61-2.62,8c-2.63-4.54-4.28-15.66-4.28-15.66,2.73-2,5.4.29,5.4.29S155.34,78.46,156.88,80.45Z" transform="translate(0 0.27)" fill="#285bb3"/><path d="M157.87,83.05a4.4,4.4,0,0,0-1.55-.76.62.62,0,0,0-.33,1.2,3.71,3.71,0,0,1,1.25.64c.66.47,1.28-.61.63-1.08Z" transform="translate(0 0.27)" fill="#daeefd"/><path d="M157.68,84.46a4.76,4.76,0,0,0-1.55-.76.62.62,0,0,0-.33,1.2,3.71,3.71,0,0,1,1.25.64c.66.47,1.28-.61.63-1.08Z" transform="translate(0 0.27)" fill="#daeefd"/><path d="M157.48,85.86a4.64,4.64,0,0,0-1.54-.77.63.63,0,0,0-.34,1.21,3.71,3.71,0,0,1,1.25.64c.66.47,1.28-.62.63-1.08Z" transform="translate(0 0.27)" fill="#daeefd"/><g clip-path="url(#c)"><path d="M156.91,88.28a2.63,2.63,0,0,0-2.23-.59L151.3,74.43l-1.49.82s2.5,15.39,5.29,16.82A4.64,4.64,0,0,0,156.91,88.28Z" transform="translate(0 0.27)" fill="#f2f9ff"/></g><g clip-path="url(#c)"><path d="M156.91,88.28a2.63,2.63,0,0,0-2.23-.59L151.3,74.43l-1.49.82s2.5,15.39,5.29,16.82A4.64,4.64,0,0,0,156.91,88.28Z" transform="translate(0 0.27)" fill="#f2f9ff"/></g><path d="M164.28,62.8a6.39,6.39,0,0,0-.41,1.53A12.65,12.65,0,0,1,162.6,67c-.84,1.33-1.9,2.58-2.07,4.2,1.26,1.65,5.31,2.34,7.13,2.23,2.45-.11,5-.62,7.42-.11,2.86.59,8.65,1.48,11.43-.06a11.74,11.74,0,0,0-1.18-3.38,19.78,19.78,0,0,1-2.15-4.67,17.17,17.17,0,0,0-.88-2.45" transform="translate(0 0.27)" fill="#c5da68"/><line x1="172.5" y1="42.61" x2="171.69" y2="43.24" fill="#fdc641"/><path d="M161.93,65.46c-3.43.52-11.43-2.95-12.16-4.4-1.11-2.17,2.15-7.05,2.88-8.52a1.85,1.85,0,0,1,2-1.14s3.07-9,7-11.65,9.48,1.15,9.48,1.15c1.94.41-.34,3.57-.62,4.29s-2.6,10.45-4.52,14.87S163.51,65.49,161.93,65.46Z" transform="translate(0 0.27)" fill="#8aafe6"/><g clip-path="url(#e)"><path d="M172.27,40.54c-1.78.22-4.37,0-8.37,13.63s-3.21,16.73,1.91,12.17S172.27,40.54,172.27,40.54Z" transform="translate(0 0.27)" fill="#7093bf"/></g><polygon points="173.06 38.17 171.01 43.32 178.69 44.75 181 39 173.06 38.17" fill="#edceb4"/><path d="M191.17,33.88c-2.18,4.66-7.88,6.64-14.59,6.64-7.35,0-15.86-4.9-15.86-13.57s5.28-13,13.92-14.49c6.9-1.15,13.88,3.86,14.66,13.34,0,0,4.84.28,2.61,3.27a14.47,14.47,0,0,1-.2,2.45,10.87,10.87,0,0,1-2.84,0A4.11,4.11,0,0,0,191.17,33.88Z" transform="translate(0 0.27)" fill="#edceb4"/><path d="M185.52,26.34c-.09.32-.72.4-1.4.19s-1.14-.65-1-1,.72-.4,1.4-.18S185.62,26,185.52,26.34Z" transform="translate(0 0.27)" fill="#503420"/><path d="M163.05,42.68a10.2,10.2,0,0,0,4.23-3.5,19.54,19.54,0,0,1-.79,4.41c1.64-1.47,3.39-2.09,3.9-4.41.62,1.24.17,2.6.28,3.9,1.42-1.3,2.83-2.43,3.06-4.46a30.5,30.5,0,0,1,.45,4.46c1.58-1.41,2.71-2.09,2.77-4.35a10.47,10.47,0,0,1,1.41,3.62c1.86-2.26,2.15-5.6,2-8.37a53,53,0,0,0-1.13-7.92c-.34-1.07-1.13-2.54-1-3.67.45.73,1.92,2.54,3.05,2.14,1-.33.51-1.92.45-2.65.29.39,1.47,1.86,2,1.86.85-.11.57-2,.68-2.54.62.39,1.53,1.75,2.32,1.75s.79-.9.45-1.52a9.16,9.16,0,0,1,3.28.73h0c-3.54-13.27-13.06-11-19.39-9.86-8.2,1.46-9.76,7.54-9.76,7.54" transform="translate(0 0.27)" fill="#503420"/><path d="M161.72,20.05c-3,.86-2.39,7-1.93,9.35.67,3.78,1.66,7.7-.13,11.28,2.26.13,5.58-3.58,6.17-5.44Z" transform="translate(0 0.27)" fill="#503420"/><path d="M177.34,29.36c-1.27-1.39-4.28-2.11-4.7.36C172.22,32,176,34,177.4,32.31,177.4,32.31,178.06,30.31,177.34,29.36Z" transform="translate(0 0.27)" fill="#edceb4"/><path d="M176.33,66.77A40.35,40.35,0,0,1,163,63.86a55.44,55.44,0,0,0,3.89-13.71c.53-3.37,3.22-7.1,4.4-7.71A52.47,52.47,0,0,0,178.9,44s3.39,10.12,3.9,19c.31.4.51,1.35-.4,1.5a9.33,9.33,0,0,0-2.92,1.6A7.35,7.35,0,0,1,176.33,66.77Z" transform="translate(0 0.27)" fill="#fd5c6c"/><path d="M183.7,91.6c.52-.24,1.21-2.91,1.8-3.2s.48,2.24.48,2.24,9.75.38,8.31,1.5c-4.15,3.22-14.94,6.36-14.94,6.36-2.38-2.44-.45-5.4-.45-5.4S181.93,93.39,183.7,91.6Z" transform="translate(0 0.27)" fill="#285bb3"/><path d="M186.18,90.19a5,5,0,0,0-.6,1.8c-.09.79,1.16.79,1.25,0a3.31,3.31,0,0,1,.43-1.17c.37-.71-.71-1.34-1.08-.63Z" transform="translate(0 0.27)" fill="#daeefd"/><path d="M187.6,90.19A5.17,5.17,0,0,0,187,92c-.09.8,1.16.8,1.25,0a3.52,3.52,0,0,1,.42-1.16c.38-.71-.7-1.34-1.08-.63Z" transform="translate(0 0.27)" fill="#daeefd"/><path d="M189,90.2a4.91,4.91,0,0,0-.59,1.79c-.09.8,1.16.79,1.25,0a3.36,3.36,0,0,1,.42-1.16c.38-.71-.7-1.35-1.08-.63Z" transform="translate(0 0.27)" fill="#daeefd"/><g clip-path="url(#f)"><path d="M191.45,90.51a2.65,2.65,0,0,0-.28,2.3l-12.68,5.13,1,1.36s14.9-4.55,15.95-7.51A4.69,4.69,0,0,0,191.45,90.51Z" transform="translate(0 0.27)" fill="#f2f9ff"/></g><g clip-path="url(#f)"><path d="M191.45,90.51a2.65,2.65,0,0,0-.28,2.3l-12.68,5.13,1,1.36s14.9-4.55,15.95-7.51A4.69,4.69,0,0,0,191.45,90.51Z" transform="translate(0 0.27)" fill="#f2f9ff"/></g><path d="M178.82,48.86c2.18,4.29.94,10.45-3.13,12.69-2.86,1.58-12.07-2.29-12.07-2.29l.71-2C179.91,64,176.87,50.46,177,50.75c-2.85-7.48-8.68-6.88-8.68-6.88l1.38-1.13A10.89,10.89,0,0,1,178.82,48.86Z" transform="translate(0 0.27)" fill="#3a597a"/><path d="M178.19,25c6.9-3.13,15.81-8.44,17.25-12.77-7.28.8-14.24,1.78-21,4.54-4,1.75-8.18,3.24-11.92,5.46-3.28,2.06-13.29,6.53-9.47,7.22C154.48,29.72,167.43,28.83,178.19,25Z" transform="translate(0 0.27)" fill="#c3ca9c"/><path d="M185.41,14.32c.34,0,.25.3,0-.12-2.29-2-4.14-4.19-6.43-6.16-.71-.67-2.34-2.71-3.57-2.85-2.14-.37-3.48,1.91-5.09,2.76-3.48,1.91-9-.34-9.81,3.39-.71,3.23-.25,12-.25,12S175.68,21.34,185.41,14.32Z" transform="translate(0 0.27)" fill="#c3ca9c"/><path d="M160.22,24.82c9.09-.94,18.87-4,26-9.65,1.73-1.36-.13-4-1.88-2.6-6.65,5.24-15.7,8.18-24.21,9.07-2.25.23-2.16,3.42.1,3.18Z" transform="translate(0 0.27)" fill="#fd5c6c"/><path d="M158.56,53.85c-2,1-4.34,7.79-3.26,8.61s4.76,2.27,5.66,1.35,3.53-5.6,2.88-8C163.45,54.35,159.92,53.18,158.56,53.85Z" transform="translate(0 0.27)" fill="#285bb3"/><path d="M162.74,42.88c-1.83.81-4.54,7.34-3.7,8.25s2.9,2.16,3.77,1.32,3.6-5.24,3.31-7.69A2.6,2.6,0,0,0,162.74,42.88Z" transform="translate(0 0.27)" fill="#285bb3"/><g clip-path="url(#e)"><path d="M152.81,50.75c2.71.7,3.79,1.21,3.58,2.61s-3.31,7.92-3.31,7.92-3.1-.16-4.67-1.6S150.63,52.11,152.81,50.75Z" transform="translate(0 0.27)" fill="#285bb3"/></g><path d="M162.81,61.55c1.41-3.07,1.84-5.07,3.75-7.19,1.14-1.28,2.86-1.69,5-3.2a2.13,2.13,0,0,0,.5-3c-.68-.95-1.82-2.19-2.88-1.71a32.17,32.17,0,0,0-6.8,4.5c-.64.53-2,4.77-3.42,8.34C158.94,59.32,158.18,61.57,162.81,61.55Z" transform="translate(0 0.27)" fill="#edceb4"/><path d="M159.67,59.55a2.44,2.44,0,0,0-1,.18,4.49,4.49,0,0,0-2,.83,6.1,6.1,0,0,0-1.45,1.37c-.13.2-.46.81-.38,1.06.2.62,1-.33,1.18-.5a6.06,6.06,0,0,1,.74-.56s-.36.43-.69.91-.77,1.26-.51,1.7c.36.62.79-.11,1-.4s.94-.91,1.48-.85c-.48.49-2,2-1.32,2.79.4.49.67,0,.91-.44A4.8,4.8,0,0,1,159,64a7.1,7.1,0,0,0-.57,1.64.84.84,0,0,0,.16.58c.22.22.3,0,.48-.2.55-.7,1.06-1.92,2-2.15,0,.45-.21.84,0,1.31s.47.56.85.12c.7-.83,1.46-3.21,1-4.28" transform="translate(0 0.27)" fill="#edceb4"/><path d="M167.55,47c2.56-1.23,5.62-3.19,7.28.21s-4,5.59-4,5.59A20.28,20.28,0,0,1,167.55,47Z" transform="translate(0 0.27)" fill="#fd5c6c"/><path d="M167.52,46.89c2.56-1.23,5.62-3.19,7.29.21s-4,5.59-4,5.59A20.2,20.2,0,0,1,167.52,46.89Z" transform="translate(0 0.27)" fill="none" stroke="#e05267" stroke-miterlimit="10"/><path d="M174.12,28.94a2.76,2.76,0,0,1,2.14,1.47c-.3-.61-1.15-.33-1.42.17a.69.69,0,0,0,.92,1" transform="translate(0 0.27)" fill="none" stroke="#d5ad90" stroke-linecap="round" stroke-linejoin="round"/><path d="M146.21,95.73c0,2.69-10.69,4.88-23.88,4.88s-23.88-2.19-23.88-4.88,10.69-4.88,23.88-4.88S146.21,93,146.21,95.73Z" transform="translate(0 0.27)" fill="#a6c459" opacity="0.45" style="mix-blend-mode:multiply"/><path d="M136.75,21.25c0,1.54-.42,2.78-.93,2.78s-.94-1.24-.94-2.78.42-2.77.94-2.77S136.75,19.72,136.75,21.25Z" transform="translate(0 0.27)" fill="none" stroke="#3a597a" stroke-miterlimit="10"/><path d="M122.25,66.56c-1.1.24-1.73-.44-2.19-1.51-2.45-5.73-2-11-1-16.29.19-1,.39-2.12.56-3.17a2.39,2.39,0,0,1,4.72.74c-.18,1.12-.39,2.23-.59,3.3-.88,4.76-1.72,9.26.16,13.65a2.39,2.39,0,0,1-1.25,3.14A2.68,2.68,0,0,1,122.25,66.56Z" transform="translate(0 0.27)" fill="#e3a67f"/><path d="M123.82,61.92a40.92,40.92,0,0,1,3.59,3.26c.37.42.23,1-.43,1s-1.06-.52-1.57-.66c.36.79.63,1.65,1,2.44.25.45.37,1.74-.46,1.32s-1-1.33-1.56-1.91c.13.61.92,2.36,0,2.69s-1.46-1.38-1.66-1.92c.3.51.76,2.92-.38,2.46a2.2,2.2,0,0,1-1-1.36,3.83,3.83,0,0,1-.36-1.58c0,.54.14,2.93-.9,1.79-1.35-1.48-1-4.4-.85-6.22C119.43,61.94,121.9,60.7,123.82,61.92Z" transform="translate(0 0.27)" fill="#e3a67f"/><path d="M117.74,48.23c.73-3.36,1.12-7.74,5.61-6.82s2.35,8,2.35,8A24.46,24.46,0,0,1,117.74,48.23Z" transform="translate(0 0.27)" fill="#43638c"/><path d="M126,66.57l-5.68,5.13c.06,0,8.6,4,11.88,15.89l5.41-4.15a37.8,37.8,0,0,0-6.41-12.18A19.38,19.38,0,0,0,126,66.57Z" transform="translate(0 0.27)" fill="#e3a67f"/><polygon points="131.37 86.42 137.14 81.99 138.88 87.73 133.72 92.26 131.37 86.42" fill="#daeefd"/><path d="M137.51,85.38a2.69,2.69,0,0,1,.31-1.42c.46-.47,1.19,2,1.19,2s9.33-2.87,8.34-1.34c-2.84,4.42-12,11-12,11-3.05-1.5-3-6.84-3-6.84S133.78,88.85,137.51,85.38Z" transform="translate(0 0.27)" fill="#db7b45"/><path d="M139.06,85.37a5.27,5.27,0,0,0,0,1.9c.18.79,1.38.45,1.21-.33a3.44,3.44,0,0,1,0-1.24.64.64,0,0,0-.44-.76.63.63,0,0,0-.77.43Z" transform="translate(0 0.27)" fill="#f1c085"/><path d="M140.41,84.9a5,5,0,0,0,0,1.89c.18.79,1.38.46,1.21-.33a3.18,3.18,0,0,1,0-1.23.64.64,0,0,0-.44-.77.62.62,0,0,0-.76.44Z" transform="translate(0 0.27)" fill="#f1c085"/><path d="M141.74,84.44a5,5,0,0,0,0,1.89c.17.79,1.38.46,1.21-.33a3.39,3.39,0,0,1,0-1.23.64.64,0,0,0-.43-.77.63.63,0,0,0-.77.44Z" transform="translate(0 0.27)" fill="#f1c085"/><path d="M142.92,84.12a4.42,4.42,0,0,0,0,1.7c.17.78,1.38.45,1.21-.33a2.8,2.8,0,0,1,0-1,.64.64,0,0,0-.43-.77.63.63,0,0,0-.77.44Z" transform="translate(0 0.27)" fill="#f1c085"/><path d="M114.47,70c2.13,3.7,9.94,8,12.51,11.44,2.8-1.41,6.65-4.28,8.37-7a150.16,150.16,0,0,0-9.78-14.84Z" transform="translate(0 0.27)" fill="#3a597a"/><path d="M121.1,72.37s7.35-2.58,7.35-9.42h-6.61Z" transform="translate(0 0.27)" fill="#43638c"/><path d="M118.11,70.64,110.64,69c0,.07,1.74,9.34-6,18.92l6.53,2a37.8,37.8,0,0,0,6.13-12.31A19.05,19.05,0,0,0,118.11,70.64Z" transform="translate(0 0.27)" fill="#e3a67f"/><polygon points="105.37 86.71 112.33 88.8 108.69 93.56 102 92.03 105.37 86.71" fill="#daeefd"/><path d="M109.58,91a2.88,2.88,0,0,1,1.33-.58c.65.1-.88,2.11-.88,2.11s7.77,5.89,6,6c-5.24.28-15.89-3.32-15.89-3.32-.56-3.36,3.81-6.42,3.81-6.42S104.58,90,109.58,91Z" transform="translate(0 0.27)" fill="#db7b45"/><path d="M110.39,92.27a4.67,4.67,0,0,0-1.39,1c-.53.61.35,1.49.88.89a3.71,3.71,0,0,1,1.14-.83c.72-.37.08-1.45-.63-1.08Z" transform="translate(0 0.27)" fill="#f1c085"/><path d="M111.56,93.08a4.7,4.7,0,0,0-1.39,1c-.53.6.35,1.49.88.88a4.07,4.07,0,0,1,1.14-.83c.72-.37.08-1.44-.63-1.08Z" transform="translate(0 0.27)" fill="#f1c085"/><path d="M112.71,93.89a4.7,4.7,0,0,0-1.39,1c-.53.6.35,1.49.89.88a3.89,3.89,0,0,1,1.13-.83c.72-.37.09-1.44-.63-1.08Z" transform="translate(0 0.27)" fill="#f1c085"/><path d="M113.66,94.67a4.2,4.2,0,0,0-1.23.9c-.53.6.35,1.49.88.89a3.24,3.24,0,0,1,1-.71c.72-.37.09-1.45-.63-1.08Z" transform="translate(0 0.27)" fill="#f1c085"/><path d="M109.68,60c-1.75,3.89-1.84,15.64-3.09,19.72,2.79,1.45,7.37,2.88,10.57,2.69,0,0,5.58-12.78,7.43-19.51Z" transform="translate(0 0.27)" fill="#43638c"/><path d="M116.64,40.17c-1,.59-4.31,2.38-7,8.92-2.88,7.09-3.61,11.06-3.49,13.18-7.89.07-10.45-3.55-10.45-3.55-.41-4,.93-6.72,5.44-14.59a13.49,13.49,0,0,1,5-5c1.42-.83,11.3.4,11.3.4Z" transform="translate(0 0.27)" fill="#fd7e3e"/><path d="M117.29,39.66c.24-.52-2.56,0-3.65.77s-2.14,1.21-4.38,7.9c-2.49,7.41-2.7,8.52-3.4,13.94a18.68,18.68,0,0,0,6.42-.94S117,40.37,117.29,39.66Z" transform="translate(0 0.27)" fill="#e86126"/><path d="M110.29,38.9c-1,.7-4.45,5.17-6.64,11.31a94.05,94.05,0,0,0-2.85,9,51.76,51.76,0,0,1-5.13-2.09c-.71-.5-.18-2.89,1.88-7.13s4.68-9.54,8.72-11.14A20.77,20.77,0,0,1,110.29,38.9Z" transform="translate(0 0.27)" fill="#fdc641"/><polygon points="118 35.37 115.96 40.51 123.64 41.95 125.95 36.2 118 35.37" fill="#e3a67f"/><path d="M136.85,26.27c0,8.67-6.57,11.45-15.33,11.45-7.34,0-15.86-4.91-15.86-13.57s5.28-13,13.93-14.49c6.9-1.15,14.62,3.89,15.4,13.36C135,23,140.51,22.75,136.85,26.27Z" transform="translate(0 0.27)" fill="#e3a67f"/><path d="M121.81,66.62a40.35,40.35,0,0,1-13.37-2.91c2.65-6.5,2.83-13,3.36-16.37s3.22-7.09,4.4-7.7a52.14,52.14,0,0,0,7.65,1.52s4.44,12.77,5,21.67c.31.39.51,1.34-.4,1.49a9.33,9.33,0,0,0-2.92,1.6A10.5,10.5,0,0,1,121.81,66.62Z" transform="translate(0 0.27)" fill="#72dbe0"/><path d="M123.89,46.72c2.27,4.83,3.92,13-3.87,14.38-3.31.58-11.76-4.64-11.76-4.64l.8-2c15.65,9.09,14.3-1.78,12.92-5.94-2.53-7.59-8.39-7.24-8.39-7.24L115,40.22A11,11,0,0,1,123.89,46.72Z" transform="translate(0 0.27)" fill="#3a597a"/><path d="M132.6,28.72a5.13,5.13,0,0,0,3.51,1.4" transform="translate(0 0.27)" fill="none" stroke="#8a6449" stroke-linecap="round" stroke-linejoin="round"/><path d="M126.34,17.62c1.31-1.05-2.83-2.14-2.83-2.14s5.09,1.66,7.32,1.05-1.58-2-1.58-2c1.42.64,4.62,1.2,5.1.23,0-1.45-2.28-2.93-3.52-3.44,1,0,2,0,3,0-2.57-2.65-6.77-2.44-10-1.6.25-.14.6-.51.84-.64-3.22-1.19-9,.13-11.25,2.62.46-1.43,2.61-2.83,2.48-4.35-2.07-.33-7.65,4.08-9.1,7.31A3.6,3.6,0,0,0,103,17c.58-.29,1.51-.9,2.18-.78a5.73,5.73,0,0,0-1.28,1.58,9.55,9.55,0,0,0-.8,4.51c.21-.56.92-2.26,1.48-2.37a2.71,2.71,0,0,1-.29.84,8.25,8.25,0,0,0-.36,2.1,8.31,8.31,0,0,0,.51,4.88,5.85,5.85,0,0,1,.73-3,9.65,9.65,0,0,0,3.69,8.93c2.35,1.8,7.52,3.51,7.52,3.51,2.13-1.61,4.39-4.32,3.94-7.61-.09-.7-.36-3.31-.36-3.31h2.77s1.71-4.18-.24-7.75C122.48,18.46,125.35,18.42,126.34,17.62Z" transform="translate(0 0.27)" fill="#6d472e"/><path d="M131.42,23a.82.82,0,1,1-.82-.82A.82.82,0,0,1,131.42,23Z" transform="translate(0 0.27)" fill="#8a6449"/><path d="M131,19.69a4.45,4.45,0,0,0-1.24.16,4.63,4.63,0,0,0-1.24.66c-.19.15-.3.35-.49.5" transform="translate(0 0.27)" fill="none" stroke="#8a6449" stroke-linecap="round" stroke-linejoin="round"/><path d="M121.42,26.19c-2.09-1.2-4.39-1-4.94,1.69a3.06,3.06,0,0,0,1.64,3.7c.68.33,1.82.65,2.47,0" transform="translate(0 0.27)" fill="#e3a67f"/><path d="M131.1,64.05s1.26-.19.71-2.33c.43.62.06,1.31.37,1.93,1.27-.53.7-2.13.55-2.82a4.86,4.86,0,0,1,.45,1.51,2,2,0,0,0,.22-2.3c.09.16.24.47.32.63.28-.86-.09-3.45-1.89-4.18a12.89,12.89,0,0,0-4.86-.57,24,24,0,0,1-2.61,1,4.11,4.11,0,0,0,2.19,3.46c1.18.46,2.41-.07,3.34.93a5.52,5.52,0,0,1,1,1.6s-.73.43-.86.85S130.66,64.22,131.1,64.05Z" transform="translate(0 0.27)" fill="#e3a67f"/><path d="M130.48,59a8.85,8.85,0,0,0-3-2.78,21.08,21.08,0,0,0-7.25-2.1,9.39,9.39,0,0,1-.61-2.58c-.14-.88-.3-1.87-.53-2.82a9,9,0,0,1-.19-1.22c0-.32-.07-.62-.13-.92a2.67,2.67,0,0,0-2.61-2.15,2.31,2.31,0,0,0-.52.06,2.65,2.65,0,0,0-2.09,3.12c.09.48.18,1.11.26,1.78v0c.47,3.65,1.19,9.15,6,10.3a14.08,14.08,0,0,0,3.4.27c.6,0,1.16-.06,1.71-.11s1.08-.09,1.52-.09c.64,0,1,.09,1.2.29a1.09,1.09,0,0,0,.86.39,3.33,3.33,0,0,0,1.87-1A.41.41,0,0,0,130.48,59Zm-14.77-14.1a2.1,2.1,0,0,1,.43,0h0A1.64,1.64,0,0,0,115.71,44.94Zm12.83,15.17h0Z" transform="translate(0 0.27)" fill="#e3a67f"/><path d="M112.41,50.23c-.33-3.42-1.3-7.72,3.26-8.2S120.36,49,120.36,49A24.53,24.53,0,0,1,112.41,50.23Z" transform="translate(0 0.27)" fill="#43638c"/><path d="M134.08,22.08c0,1.72-.52,3.12-1.16,3.12s-1.16-1.4-1.16-3.12.52-3.11,1.16-3.11S134.08,20.36,134.08,22.08Z" transform="translate(0 0.27)" fill="none" stroke="#3a597a" stroke-miterlimit="10"/><path d="M134.17,21.73s.49-.86.71-.48" transform="translate(0 0.27)" fill="none" stroke="#3a597a" stroke-linecap="round" stroke-linejoin="round"/></g></svg>