<svg xmlns="http://www.w3.org/2000/svg" viewBox="0 0 50 50"><title>day</title><path d="M11,28.81a1,1,0,0,1-.33-.06A11.46,11.46,0,0,0,9,28.31C7.59,28,6.12,27.7,5.89,26.6S6.82,24.69,8,23.81A11.44,11.44,0,0,0,9.43,22.7a.9.9,0,0,1,1.55.57,17.34,17.34,0,0,0,.88,4.34.9.9,0,0,1-.22.95A1,1,0,0,1,11,28.81Zm-1.11-5a14.81,14.81,0,0,1-1.21.93C8,25.2,6.91,26,7,26.38H7c.07.38,1.44.67,2.25.84.49.1,1,.21,1.43.34A17.9,17.9,0,0,1,9.9,23.79Z" transform="translate(0 0)"/><path d="M10.08,21.71a.91.91,0,0,1-.65-.27A11.45,11.45,0,0,0,8,20.32c-1.22-.87-2.37-1.7-2.15-2.78h0c.23-1.1,1.7-1.41,3.12-1.71a11.46,11.46,0,0,0,1.67-.44.9.9,0,0,1,1.18,1.14A17.34,17.34,0,0,0,11,20.87a.87.87,0,0,1-.59.78A.85.85,0,0,1,10.08,21.71Zm.59-5.13c-.44.13-.94.24-1.43.34-.81.17-2.18.46-2.25.84H7c-.08.37,1,1.18,1.7,1.66a14.81,14.81,0,0,1,1.21.93A17.77,17.77,0,0,1,10.67,16.58Z" transform="translate(0 0)"/><path d="M12,14.91h0a.89.89,0,0,1-.8-.55,11.43,11.43,0,0,0-.88-1.52c-.81-1.26-1.57-2.45-1-3.35h0c.61-.9,2-.64,3.48-.35a12.37,12.37,0,0,0,1.72.24.9.9,0,0,1,.81.54.89.89,0,0,1-.15,1,17.15,17.15,0,0,0-2.38,3.54A.92.92,0,0,1,12,14.91ZM10.2,10.12c-.19.29.57,1.48,1,2.12.28.43.56.87.78,1.29A18.42,18.42,0,0,1,14,10.47c-.47-.05-1-.14-1.47-.24-.75-.14-2.15-.41-2.35-.11Z" transform="translate(0 0)"/><path d="M45.1,35.27a11,11,0,0,1-2-.27,12.42,12.42,0,0,0-1.73-.25.89.89,0,0,1-.66-1.49,17.61,17.61,0,0,0,2.39-3.54.93.93,0,0,1,.83-.49.9.9,0,0,1,.81.55,12.48,12.48,0,0,0,.87,1.52c.81,1.26,1.58,2.45,1,3.35A1.66,1.66,0,0,1,45.1,35.27Zm-3.26-1.61c.47.05,1,.15,1.48.24.75.15,2.14.42,2.34.12s-.57-1.48-1-2.12c-.27-.43-.55-.87-.77-1.29A18.6,18.6,0,0,1,41.84,33.66Z" transform="translate(0 0)"/><path d="M39.78,40.94a5.75,5.75,0,0,1-2.62-1.18,11.43,11.43,0,0,0-1.52-.88.88.88,0,0,1-.55-.8.93.93,0,0,1,.49-.84,16.63,16.63,0,0,0,3.54-2.38.91.91,0,0,1,1-.15.9.9,0,0,1,.54.81,11,11,0,0,0,.25,1.72c.28,1.48.55,2.87-.36,3.48A1.23,1.23,0,0,1,39.78,40.94ZM36.47,38c.42.22.86.5,1.29.78.64.41,1.84,1.17,2.13,1s0-1.6-.12-2.35c-.1-.49-.19-1-.24-1.47A18,18,0,0,1,36.47,38Z" transform="translate(0 0)"/><path d="M43.91,14.91a.89.89,0,0,1-.8-.49,17.2,17.2,0,0,0-2.39-3.54.91.91,0,0,1-.15-1,.93.93,0,0,1,.81-.54,12.29,12.29,0,0,0,1.73-.24c1.47-.29,2.87-.55,3.48.35h0c.61.9-.16,2.09-1,3.35a12.48,12.48,0,0,0-.87,1.52.89.89,0,0,1-.8.55Zm-2.07-4.44a19.12,19.12,0,0,1,2.07,3.06c.22-.42.5-.86.77-1.29.41-.64,1.18-1.83,1-2.12s-1.6,0-2.34.11A13.77,13.77,0,0,1,41.84,10.47Z" transform="translate(0 0)"/><path d="M45.79,21.71a.87.87,0,0,1-.32-.06.89.89,0,0,1-.59-.78A16.74,16.74,0,0,0,44,16.53a.91.91,0,0,1,1.19-1.14,11.46,11.46,0,0,0,1.67.44c1.42.3,2.89.61,3.11,1.71s-.92,1.91-2.14,2.78a12.46,12.46,0,0,0-1.4,1.12A.87.87,0,0,1,45.79,21.71Zm-.6-5.14A18,18,0,0,1,46,20.35c.37-.32.8-.63,1.22-.93.66-.48,1.77-1.29,1.7-1.66h0c-.08-.38-1.44-.67-2.26-.84C46.14,16.82,45.64,16.71,45.19,16.57Z" transform="translate(0 0)"/><path d="M44.85,28.81a.9.9,0,0,1-.62-.25.89.89,0,0,1-.23-.95,16.82,16.82,0,0,0,.88-4.34.91.91,0,0,1,.59-.79.9.9,0,0,1,1,.22,13.7,13.7,0,0,0,1.4,1.12c1.22.87,2.36,1.7,2.14,2.78S48.28,28,46.86,28.31a12,12,0,0,0-1.68.44A.92.92,0,0,1,44.85,28.81Zm1.11-5a17.77,17.77,0,0,1-.77,3.77c.45-.13,1-.24,1.43-.34.82-.17,2.18-.46,2.26-.84s-1-1.18-1.7-1.66C46.76,24.42,46.33,24.11,46,23.79Z" transform="translate(0 0)"/><path d="M16.15,9.5a.92.92,0,0,1-.36-.07.91.91,0,0,1-.54-.81A10.81,10.81,0,0,0,15,6.9c-.28-1.48-.55-2.87.35-3.49h0c.91-.61,2.1.16,3.36,1a11.7,11.7,0,0,0,1.51.87.92.92,0,0,1,.56.81.89.89,0,0,1-.5.83,16.87,16.87,0,0,0-3.53,2.39A.89.89,0,0,1,16.15,9.5ZM16,4.34c-.29.2,0,1.6.12,2.35.09.49.19,1,.24,1.47A17.94,17.94,0,0,1,19.39,6.1c-.42-.22-.86-.51-1.29-.78-.64-.41-1.82-1.18-2.12-1Z" transform="translate(0 0)"/><path d="M39.71,9.5a.88.88,0,0,1-.59-.22,17.26,17.26,0,0,0-3.53-2.39.9.9,0,0,1,0-1.64,12.48,12.48,0,0,0,1.52-.87c1.26-.81,2.45-1.57,3.35-1h0c.91.62.64,2,.36,3.49a10.81,10.81,0,0,0-.25,1.72.93.93,0,0,1-.54.81A.94.94,0,0,1,39.71,9.5ZM36.47,6.1a18,18,0,0,1,3.06,2.06c0-.47.14-1,.24-1.47.14-.75.41-2.15.12-2.35h0c-.29-.2-1.49.57-2.13,1C37.33,5.59,36.89,5.88,36.47,6.1Z" transform="translate(0 0)"/><path d="M22.16,5.88a.9.9,0,0,1-.85-1.21,13,13,0,0,0,.38-1.52C22,1.72,22.3.25,23.4,0h0c1.08-.23,1.91.93,2.79,2.14a11.9,11.9,0,0,0,1,1.28.93.93,0,0,1,.21.91.92.92,0,0,1-.68.61l-4.37.89A.65.65,0,0,1,22.16,5.88Zm1.5-4.76h0c-.38.08-.66,1.44-.84,2.26-.09.44-.19.9-.31,1.32L26.13,4c-.29-.35-.57-.74-.85-1.12C24.82,2.18,24.05,1.12,23.66,1.12Zm2.71,3.1Z" transform="translate(0 0)"/><path d="M33.77,6.05a1,1,0,0,1-.3,0,16.74,16.74,0,0,0-4.34-.88.91.91,0,0,1-.57-1.55,11.61,11.61,0,0,0,1.12-1.4C30.55,1,31.37-.2,32.47,0h0c1.09.22,1.4,1.69,1.7,3.12a11.46,11.46,0,0,0,.44,1.67.88.88,0,0,1-.19.95A.9.9,0,0,1,33.77,6.05ZM29.65,4a18,18,0,0,1,3.78.77c-.14-.45-.25-.95-.35-1.43-.17-.82-.46-2.18-.84-2.26h0c-.37-.06-1.18,1-1.66,1.7C30.28,3.24,30,3.67,29.65,4Z" transform="translate(0 0)"/><path d="M26,50H6a6,6,0,0,1-.9-11.88,7.06,7.06,0,0,1,13.26-4.67A5.42,5.42,0,0,1,25.26,37,6.45,6.45,0,0,1,26,37a6.52,6.52,0,1,1,0,13ZM11.91,30.45a6,6,0,0,0-5.58,8l.26.72-.77,0A4.86,4.86,0,0,0,6,48.88H26a5.4,5.4,0,1,0,0-10.8,5.29,5.29,0,0,0-1.06.1l-.55.12-.11-.55a4.32,4.32,0,0,0-6-3.07l-.55.26-.21-.58A6,6,0,0,0,11.91,30.45Z" transform="translate(0 0)"/><path d="M31.7,37.55l-.23-.25a5.71,5.71,0,0,0-4.82-1.81l-.47.06-.13-.45a4.59,4.59,0,0,0-5.87-3l-.48.16-.21-.46a6.06,6.06,0,0,0-5.69-3.57h-.4l-.14-.37A15.68,15.68,0,1,1,32,37.47Zm-4.39-3.22a6.76,6.76,0,0,1,4.74,2,14.56,14.56,0,1,0-18.69-14,14.44,14.44,0,0,0,.82,4.76,7.26,7.26,0,0,1,6.11,3.79A5.73,5.73,0,0,1,27,34.34Z" transform="translate(0 0)"/></svg>