<svg xmlns="http://www.w3.org/2000/svg" viewBox="0 0 260 160"><title>forest</title><path d="M63.62,113.44a410.78,410.78,0,0,0,59.74.63C124.43,95.34,119,77,113.57,59.21c-5.16-16.76-9.66-34.28-16-50.54C91.63-6.59,82.75.45,79.48,13.17,77.32,21.59,60,113.14,63.62,113.44Z" transform="translate(0 0)" fill="#88e3e5"/><path d="M90.33,31.59c-1.18,34.49.12,73.86-1.73,108.32-.14,2.67-.3,5.48.85,7.86s4.11,4,6.32,2.71,2.37-4.4,2.34-7c-.26-18.8-1.64-67-3-76.34C94.44,62.21,94,49.07,93,44.2q-1.32-6.3-2.66-12.61" transform="translate(0 0)" fill="#70685d"/><path d="M44.75,154.33a31.11,31.11,0,0,0,11.93-1.1,1.42,1.42,0,0,0,.85-.49,2,2,0,0,0,.21-1.31l-1.59-28.85-6.24,0a3.33,3.33,0,0,0-2.73.85C44.92,126.09,43.86,154.24,44.75,154.33Z" transform="translate(0 0)" fill="#a99c87"/><path d="M29,94.36A49.07,49.07,0,0,1,.09,100.07c-.75,7,3.26,13.55,7.76,15.51s9.31.52,13.9-.92c-3.1,0-4.55,6.84-2.68,10.58a6.56,6.56,0,0,0,8.5,3.3c3-1.09,5.73-3.54,8.68-5-.6,4.63,3.41,7.13,6.49,7.79s6.19,1.29,9.14,0,5.66-5.06,5.74-9.71c3.59,3.74,7.52,7.64,11.88,7.4s8.73-6.91,7.11-13.05c4.42,4.64,10.85,4.26,15-.87,5-5.64,5.32-9.11,5.38-13.82C97,107,60.32,90.11,57.77,88c-4.39-3.66-8.14-9-13.38-6.77S34.51,91.45,29,94.36Z" transform="translate(0 0)" fill="#c3f0f4"/><path d="M32,64c-7.26,4.68-15.06,6.55-22.73,5.45-.59,6.71,2.56,13,6.1,14.84s7.32.5,10.93-.88c-2.43,0-3.58,6.54-2.1,10.11s4.31,4.2,6.68,3.17,4.5-3.39,6.82-4.76a6.78,6.78,0,0,0,5.11,7.45c2.39.62,4.86,1.24,7.18,0s4.46-4.84,4.52-9.29c2.83,3.58,5.92,7.31,9.34,7.08s6.87-6.61,5.59-12.48c3.48,4.43,8.54,4.07,11.82-.84,3.92-5.38,4.19-8.71,4.24-13.21C85.44,76,56.63,59.89,54.63,57.86c-3.45-3.5-6.4-8.59-10.52-6.48S36.33,61.17,32,64Z" transform="translate(0 0)" fill="#fafcfc"/><path d="M33.55,36.1c-5.93,4.28-12.3,6-18.58,5-.48,6.13,2.1,11.84,5,13.55s6,.46,8.93-.8c-2,0-2.92,6-1.72,9.23S30.7,66.9,32.64,66s3.68-3.1,5.57-4.34a6.16,6.16,0,0,0,4.18,6.8c2,.57,4,1.13,5.87,0S51.9,64,52,59.93c2.31,3.27,4.84,6.67,7.64,6.46s5.61-6,4.56-11.39c2.85,4,7,3.72,9.67-.77,3.2-4.91,3.42-7.95,3.46-12.06,0,5-23.59-9.78-25.23-11.64-2.82-3.2-5.23-7.84-8.6-5.91S37.09,33.55,33.55,36.1Z" transform="translate(0 0)" fill="#c3f0f4"/><path d="M36.37,12.52c-4.49,3.54-9.29,4.95-14,4.12-.36,5.07,1.58,9.8,3.77,11.22s4.51.38,6.74-.67c-1.5,0-2.21,4.95-1.3,7.65s2.66,3.17,4.12,2.39,2.78-2.56,4.21-3.59C39.59,37,41.54,38.79,43,39.27s3,.93,4.44,0,2.74-3.66,2.78-7C52,35,53.9,37.77,56,37.6s4.23-5,3.44-9.43c2.15,3.34,5.27,3.07,7.3-.64,2.61-6.31.06-6.81.09-10.21,0,4.11-15.29-7.88-16.53-9.42C48.2,5.26,46.38,1.41,43.84,3S39,10.41,36.37,12.52Z" transform="translate(0 0)" fill="#fafcfc"/><path d="M194.35,144.15a26,26,0,0,0,9.9-.92,1.19,1.19,0,0,0,.71-.4,1.8,1.8,0,0,0,.17-1.09l-1.32-24-5.18,0a2.72,2.72,0,0,0-2.26.7C194.49,120.7,193.61,144.07,194.35,144.15Z" transform="translate(0 0)" fill="#70685d"/><path d="M181.27,94.36a40.76,40.76,0,0,1-24,4.74c-.62,5.82,2.71,11.25,6.45,12.88s7.72.43,11.53-.77c-2.57,0-3.78,5.68-2.22,8.78a5.44,5.44,0,0,0,7.05,2.75c2.5-.91,4.76-2.94,7.21-4.13-.5,3.84,2.83,5.92,5.39,6.47s5.13,1.07,7.58,0S205,120.87,205,117c3,3.11,6.25,6.35,9.86,6.15s7.25-5.74,5.9-10.83c3.68,3.84,9,3.53,12.48-.73,4.14-4.68,4.42-7.56,4.47-11.47-.06,4.71-30.47-9.3-32.59-11.07-3.64-3-6.75-7.45-11.1-5.62S185.84,91.94,181.27,94.36Z" transform="translate(0 0)" fill="#88e3e5"/><path d="M183.76,69.13a27.3,27.3,0,0,1-18.87,4.52C164.4,79.22,167,84.42,170,86s6.08.42,9.07-.73c-2,0-3,5.43-1.75,8.4s3.58,3.49,5.55,2.62,3.74-2.81,5.67-3.94a5.62,5.62,0,0,0,4.24,6.18c2,.52,4,1,6,0s3.7-4,3.75-7.71c2.35,3,4.91,6.07,7.76,5.88s5.69-5.49,4.64-10.36c2.88,3.68,7.08,3.38,9.81-.7,3.25-4.47,3.48-7.23,3.52-11-.05,4.51-24-8.89-25.63-10.59-2.87-2.9-5.31-7.13-8.74-5.37S187.36,66.81,183.76,69.13Z" transform="translate(0 0)" fill="#d0f4f1"/><path d="M185.05,46c-4.93,3.55-10.22,5-15.42,4.14-.4,5.08,1.74,9.83,4.14,11.25s5,.38,7.41-.67c-1.65,0-2.42,5-1.42,7.67s2.92,3.18,4.53,2.39,3.06-2.57,4.63-3.6a5.1,5.1,0,0,0,3.46,5.64c1.63.48,3.31.94,4.88,0s3-3.67,3.06-7c1.92,2.72,4,5.54,6.34,5.37s4.66-5,3.8-9.46c2.36,3.36,5.79,3.09,8-.63a15.76,15.76,0,0,0,2.87-10c0,4.12-19.58-8.12-20.95-9.67-2.34-2.65-4.34-6.5-7.13-4.9S188,43.88,185.05,46Z" transform="translate(0 0)" fill="#88e3e5"/><path d="M187.39,26.42c-3.72,2.93-7.72,4.11-11.65,3.42-.3,4.21,1.32,8.14,3.13,9.31s3.75.31,5.6-.55c-1.25,0-1.84,4.1-1.08,6.35s2.21,2.63,3.42,2,2.31-2.13,3.5-3a4.23,4.23,0,0,0,2.61,4.67c1.23.39,2.49.78,3.68,0s2.28-3,2.31-5.83c1.45,2.25,3,4.59,4.79,4.44s3.51-4.14,2.86-7.83c1.78,2.79,4.37,2.56,6.06-.52,2.17-5.24,0-5.65.07-8.48,0,3.41-12.69-6.54-13.72-7.82-1.76-2.19-3.27-5.39-5.38-4.06S189.6,24.66,187.39,26.42Z" transform="translate(0 0)" fill="#d0f4f1"/><path d="M133.12,158.54c5.27.06,10.54,2,15.7,0-1.77-15-3-33-3.7-48.31s.07-30.7-.58-45.82c-9.86-6.54-11.08,14.17-11,26.73C133.51,96.75,133.43,158.54,133.12,158.54Z" transform="translate(0 0)" fill="#a99c87"/><path d="M117.9,99.52a8.36,8.36,0,0,0,.47,3.39,5.91,5.91,0,0,0,3.54,2.89,20.42,20.42,0,0,0,14.72.09,1.65,1.65,0,0,0,.76-.48,2,2,0,0,0,.28-1.1,13.23,13.23,0,0,0-.46-4.07c-4-.61-8.55,1.38-11.87-1.23a9.22,9.22,0,0,1-3-6.08c-.47-3.45.72-7.24-.15-10.58-.6-2.28-1.72-3.26-3-1.17C116.44,85.63,117.91,94.5,117.9,99.52Z" transform="translate(0 0)" fill="#a99c87"/><path d="M155.17,93.34a4.92,4.92,0,0,1-.3,2.1,3.82,3.82,0,0,1-2.32,1.8,14.13,14.13,0,0,1-9.66.05,1,1,0,0,1-.5-.3,1.2,1.2,0,0,1-.18-.68,7.93,7.93,0,0,1,.31-2.52c2.62-.38,5.6.85,7.78-.77a5.61,5.61,0,0,0,1.95-3.77c.31-2.14-.47-4.49.1-6.57.39-1.41,1.13-2,2-.72C156.13,84.72,155.17,90.22,155.17,93.34Z" transform="translate(0 0)" fill="#a99c87"/><path d="M190,70.56c2,2,3,6.14,1.37,8.61C190.12,81,188,81.28,186.1,81.4c-2.3.13-4.9.12-6.54-2-.13,4.23-2.62,8.12-5.79,9.06s-6.78-1.16-8.38-4.89c-2.42,3.22-5.28,6.22-8.71,7a7.39,7.39,0,0,1-8.55-5.76,24.15,24.15,0,0,1-20.32,5.35c-3.07-.64-6.61-2.67-7.06-6.67-3,2.18-6.36,4.07-9.86,3.9a9,9,0,0,1-8-7.34c-2.13-.85-4.39-.06-6.56.49s-4.61.78-6.41-.92-2-6,0-7a3.56,3.56,0,0,0,1.25-.65c.63-.72.41-2,.3-3.11-.47-4.63,2.77-9.2,6.36-9,1.16-4.6,5.33-6.46,9-7.22,15.44-3.19,31,1.84,46.46,2.34,8.92.29,21-6.32,29.27-.61,5.83,4,9.57,12.36.43,13.31C185.4,68,188,68.57,190,70.56Z" transform="translate(0 0)" fill="#ebf2f2"/><path d="M90.26,55.34c-2,2.14-2.76,6.3-1,8.68,1.33,1.8,3.5,1.92,5.44,1.92,2.35,0,5-.16,6.56-2.38.32,4.22,3,8,6.31,8.71s6.84-1.55,8.3-5.36c2.62,3.07,5.66,5.9,9.18,6.48a7.61,7.61,0,0,0,8.44-6.24,24.83,24.83,0,0,0,20.92,4.17c3.1-.82,6.61-3.06,6.88-7.08,3.2,2,6.67,3.7,10.22,3.33a9.22,9.22,0,0,0,7.84-7.8c2.12-1,4.46-.31,6.69.12s4.73.51,6.49-1.29,1.8-6.15-.35-7.05a3.52,3.52,0,0,1-1.3-.57c-.67-.68-.51-2-.44-3.09.26-4.65-3.25-9-6.89-8.6-1.39-4.52-5.72-6.14-9.51-6.69-15.86-2.3-31.45,3.63-47.18,5-9.06.81-21.62-5.09-29.81,1.09-5.75,4.34-9.18,12.9.17,13.31C94.8,52.55,92.17,53.24,90.26,55.34Z" transform="translate(0 0)" fill="#fafcfc"/><path d="M123.37,16.87A60.39,60.39,0,0,0,99.88,30.51c-1.74,1.61-3.59,3.85-3.29,6.56a4.65,4.65,0,0,0,3.82,4.07,9.08,9.08,0,0,0,5.2-1.36c-.47,3,.88,6.38,3.09,7.65s5.07.34,6.54-2.12c-.27,2.83,1.12,5.79,3.21,6.81s4.67,0,6-2.32c.73,2.71,2.83,4.74,5.08,4.9s4.51-1.58,5.46-4.18a10.35,10.35,0,0,0,9.16,2.13c2.43-.65,5-3,4.76-6.17,2.23,2.56,5.46,3.05,8.46,3A9.25,9.25,0,0,0,163.09,48a6.51,6.51,0,0,0,2.31-6.4,20.42,20.42,0,0,0,8,.59A3.34,3.34,0,0,0,176,40.92a4.18,4.18,0,0,0-.47-4.5,7.34,7.34,0,0,0-3.5-2.11,13.91,13.91,0,0,0,7.86-5.65,7.12,7.12,0,0,0,1.34-2.86,5.6,5.6,0,0,0-3.63-6.1c-2.16-.64-4.41.19-6.54,1-.27-2.45-1.86-4.58-3.77-5a4.52,4.52,0,0,0-5,2.92,4.7,4.7,0,0,0-3.85-4.23c-1.82-.21-3.62.86-5,2.38-.59.65-1.18,1.42-2,1.56a3,3,0,0,1-2-.64,28.13,28.13,0,0,0-26.08-1.41A6.61,6.61,0,0,0,119,11.73a12.08,12.08,0,0,0-5.91.14,2.59,2.59,0,0,0-1.75.92,4.13,4.13,0,0,0-.52,2.19,33.51,33.51,0,0,0,.56,7.82" transform="translate(0 0)" fill="#fafcfc"/><path d="M131.37,7.68c-3,.11-6,.25-8.7,1.88a6.66,6.66,0,0,0-3.32,5.24c-.09,2.36,2.08,4.65,3.65,3.4-.41,1.83-2,3.1-2,5a2.71,2.71,0,0,0,1.7,2.73,2.16,2.16,0,0,0,2.38-1.73A4,4,0,0,0,129,28.63c2-.15,3.72-1.76,5.31-3.31.19,1.94,1,3.88,2.39,4.72a2.68,2.68,0,0,0,3.91-1.63c.14-.47.23-1,.57-1.27s1,.07,1.38.37c2.74,1.93,6.61.55,8.16-2.92a3.3,3.3,0,0,0,5.36.55c1.46-1.75,1.24-5.3-.51-6.57,1.95-1.25,1.62-5.27-.1-7-2.35-2.33-7.1-2.11-10-2.93C140.82,7.36,136.07,7.5,131.37,7.68Z" transform="translate(0 0)" fill="#fafcfc"/><path d="M215.86,132.34a304,304,0,0,0,44,.47c.79-13.81-3.19-27.35-7.22-40.45-3.8-12.35-7.12-25.27-11.79-37.26C236.51,43.85,230,49,227.55,58.42,226,64.63,213.16,132.12,215.86,132.34Z" transform="translate(0 0)" fill="#b6f2f2"/><path d="M229.8,86.63l-.3,1.66" transform="translate(0 0)" fill="#b6f2f2"/><path d="M251.29,87.57c-3.24-10.87-6.28-22-10.35-32.47C236.56,43.85,230,49,227.6,58.42,227,60.9,224.55,73.14,222,87Z" transform="translate(0 0)" fill="#f7f7f7"/><path d="M235.55,72c-.87,25.42.09,54.46-1.28,79.86-.1,2-.22,4,.63,5.8s3,3,4.66,2,1.75-3.24,1.72-5.16c-.19-13.86-1.21-49.41-2.18-56.28-.52-3.64-.83-13.33-1.59-16.91-.65-3.1-1.31-6.2-2-9.3" transform="translate(0 0)" fill="#a99c87"/></svg>