<svg xmlns="http://www.w3.org/2000/svg" viewBox="0 0 49.97 49.85"><title>night</title><path d="M46.06,19h0a.82.82,0,0,1-.73-.46L44.55,17l-1.7-.25a.83.83,0,0,1-.46-1.41l1.24-1.2-.29-1.69a.82.82,0,0,1,1.19-.87l1.53.8,1.52-.8a.81.81,0,0,1,.87.06.84.84,0,0,1,.33.81l-.3,1.69,1.23,1.2a.83.83,0,0,1-.45,1.41l-1.7.25-.76,1.54A.85.85,0,0,1,46.06,19Zm-2.71-3.19,1.44.21a.83.83,0,0,1,.62.45l.65,1.31.64-1.31a.83.83,0,0,1,.62-.45l1.44-.21-1-1a.85.85,0,0,1-.24-.73l.25-1.43-1.29.67a.81.81,0,0,1-.77,0l-1.29-.67.25,1.43a.83.83,0,0,1-.24.73Zm1.16,1.1Zm3.09,0Zm-4-2.68ZM46,12.43h0Z" transform="translate(0 -0.15)"/><path d="M7.82,5.33a.71.71,0,0,1-.64-.4L6.74,4l-1-.15a.71.71,0,0,1-.39-1.21L6.07,2,5.9,1a.71.71,0,0,1,.28-.7A.74.74,0,0,1,6.93.23L7.82.7,8.71.23a.73.73,0,0,1,.74.05.74.74,0,0,1,.29.7L9.57,2l.72.7a.73.73,0,0,1,.18.73.72.72,0,0,1-.58.48L8.9,4l-.45.9A.71.71,0,0,1,7.82,5.33ZM6.47,3,7,3.06a.69.69,0,0,1,.53.39L7.82,4l.25-.51a.69.69,0,0,1,.53-.39L9.17,3l-.41-.4A.71.71,0,0,1,8.55,2l.1-.56-.5.27a.72.72,0,0,1-.67,0L7,1.39l.1.56a.73.73,0,0,1-.2.63Zm-.38-.86Zm3.45,0ZM8,.77Z" transform="translate(0 -0.15)"/><path d="M21.75,39.05a6.08,6.08,0,0,0-.61,0,4.58,4.58,0,0,0-5.79-3A5.93,5.93,0,0,0,4.22,40,5,5,0,0,0,5,50H21.75a5.48,5.48,0,0,0,0-11Zm0,10H5a4,4,0,0,1-.12-8l.69,0-.23-.65a4.92,4.92,0,1,1,9.25-3.36l.19.51.49-.23a3.57,3.57,0,0,1,5,2.54l.1.49.49-.1a4.41,4.41,0,0,1,.89-.09,4.48,4.48,0,0,1,0,9Z" transform="translate(0 -0.15)"/><path d="M28.21,43.8l-.06-.53a5.41,5.41,0,0,0-5.38-4.8c-.2,0-.4,0-.6,0l-.42,0-.12-.39A4.41,4.41,0,0,0,16,35.28l-.42.14L15.41,35a5.88,5.88,0,0,0-7-3.16L8,32l-.16-.44A18.83,18.83,0,0,1,30.74,7l2.94.84L30.63,8a14.2,14.2,0,1,0,11.8,22.94l1.88-2.38-1,2.86A18.85,18.85,0,0,1,28.73,43.71Zm-5.44-6.33a6.41,6.41,0,0,1,6.29,5.16,17.83,17.83,0,0,0,12.13-8.94,15,15,0,0,1-9.92,3.7,15.21,15.21,0,0,1-3.6-30,19.38,19.38,0,0,0-2.15-.13A17.88,17.88,0,0,0,7.67,25.14a17.67,17.67,0,0,0,.93,5.63,6.86,6.86,0,0,1,7.52,3.44,5.41,5.41,0,0,1,6.33,3.27Z" transform="translate(0 -0.15)"/></svg>