<svg version="1.1" id="Layer_1" xmlns="http://www.w3.org/2000/svg" xmlns:xlink="http://www.w3.org/1999/xlink" x="0px" y="0px"
	 viewBox="0 0 180 180" xml:space="preserve">
<g>
	<g>
		<path d="M120.4,88.3c-17.7,0-32.1,14.4-32.1,32.1s14.4,32.1,32.1,32.1s32.1-14.4,32.1-32.1S138.1,88.3,120.4,88.3z M120.4,145.3
			c-13.8,0-25-11.2-25-25s11.2-25,25-25c13.8,0,25,11.2,25,25S134.1,145.3,120.4,145.3z"/>
		<path d="M173.9,116.8h-14.3c-2,0-3.6,1.6-3.6,3.6s1.6,3.6,3.6,3.6h14.3c2,0,3.6-1.6,3.6-3.6S175.8,116.8,173.9,116.8z"/>
		<path d="M119.8,156c-2,0-3.6,1.6-3.6,3.6v14.3c0,2,1.6,3.6,3.6,3.6s3.6-1.6,3.6-3.6v-14.3C123.3,157.6,121.7,156,119.8,156z"/>
		<path d="M151.4,146.4c-1.4-1.4-3.6-1.4-5,0c-1.4,1.4-1.4,3.6,0,5l10.1,10.1c0.7,0.7,1.6,1,2.5,1s1.8-0.3,2.5-1
			c1.4-1.4,1.4-3.6,0-5L151.4,146.4z"/>
		<path d="M156.5,82.2l-10.1,10.1c-1.4,1.4-1.4,3.7,0,5c0.7,0.7,1.6,1,2.5,1s1.8-0.3,2.5-1l10.1-10.1c1.4-1.4,1.4-3.7,0-5
			C160.1,80.8,157.9,80.8,156.5,82.2z"/>
	</g>
	<g>
		<path d="M37.4,70.1c5.6,0,11.2-1.5,16-4.3c1.1-0.6,1.8-1.8,1.8-3.1s-0.7-2.5-1.8-3.1C45.7,55.1,40.9,46.8,40.9,38
			s4.8-17.2,12.5-21.6c1.1-0.6,1.8-1.8,1.8-3.1s-0.7-2.4-1.8-3.1c-4.9-2.8-10.4-4.3-16-4.3C19.7,5.9,5.3,20.3,5.3,38
			S19.7,70.1,37.4,70.1z"/>
		<path fill="#FBB652" d="M37.4,13c2.4,0,4.8,0.4,7.1,1c-6.7,6-10.7,14.7-10.7,23.9s4,17.9,10.7,23.9c-2.3,0.7-4.7,1-7.1,1
			c-13.8,0-25-11.2-25-25C12.4,24.2,23.6,13,37.4,13z"/>
		<path d="M44.9,94.6c-1.4-1.4-3.6-1.4-5,0l-2.5,2.5l-2.5-2.5c-1.4-1.4-3.6-1.4-5,0s-1.4,3.6,0,5l2.5,2.5l-2.5,2.5
			c-1.4,1.4-2.4,3.7-1,5c0.7,0.7,1.6,1,2.5,1s1.8-0.3,2.5-1l2.5-2.5l2.5,2.5c0.7,0.7,1.6,1,2.5,1s1.8-0.3,2.5-1c1.4-1.4,2.4-3.6,1-5
			l-2.5-2.5l2.5-2.5C46.3,98.2,46.3,96,44.9,94.6z"/>
		<path d="M75.1,34.4l-2.5,2.5c-1.4,1.4-1.4,3.7,0,5c0.7,0.7,1.6,1,2.5,1c0.9,0,1.8-0.3,2.5-1l2.5-2.5l2.5,2.5
			c0.7,0.7,0.6,1,1.5,1c0.9,0,1.8-0.3,2.5-1c1.4-1.4,1.4-3.6,0-5l-2.5-2.5l2.5-2.5c1.4-1.4,1.4-3.7,0-5c-1.4-1.4-2.6-1.4-4,0
			l-2.5,2.5l-2.5-2.5c-1.4-1.4-3.6-1.4-5,0s-1.4,3.6,0,5L75.1,34.4z"/>
	</g>
	<path d="M176.1,4.1c-1.4-1.4-3.6-1.4-5,0L4.1,171c-1.4,1.4-1.4,3.6,0,5c0.7,0.7,1.6,1,2.5,1s1.8-0.3,2.5-1L176.1,9.2
		C177.4,7.8,177.4,5.5,176.1,4.1z"/>
</g>
</svg>
