<svg xmlns="http://www.w3.org/2000/svg" viewBox="0 0 30.03 29.98"><title>path-curve-quarter-bottom-right</title><path d="M2,9.79A10.8,10.8,0,0,1,0,10v1a11.29,11.29,0,0,0,2.22-.22A11,11,0,0,0,11,0H10A10,10,0,0,1,2,9.79Z" transform="translate(0.01 -0.01)"/><path d="M5.8,28.4A28.93,28.93,0,0,1,0,29v1a30.19,30.19,0,0,0,6-.61A30,30,0,0,0,30,0H29A29,29,0,0,1,5.8,28.4Z" transform="translate(0.01 -0.01)"/><path d="M2.51,12.24A12.82,12.82,0,0,1,0,12.49v15a27.4,27.4,0,0,0,5.51-.56A27.48,27.48,0,0,0,27.51,0h-15A12.5,12.5,0,0,1,2.51,12.24Zm1.43,7-.2-1a19.27,19.27,0,0,0,7-2.93l.56.83A20.47,20.47,0,0,1,3.94,19.28Zm16-16a20.32,20.32,0,0,1-3,7.25L16.12,10A19.53,19.53,0,0,0,19,3.06Z" transform="translate(0.01 -0.01)"/></svg>