<svg xmlns="http://www.w3.org/2000/svg" viewBox="0 0 30.03 29.98"><title>path-curve-quarter-top-right</title><path d="M2,20.21A10.8,10.8,0,0,0,0,20V19a11.29,11.29,0,0,1,2.22.22A11,11,0,0,1,11,30H10A10,10,0,0,0,2,20.21Z" transform="translate(0.01 -0.01)"/><path d="M5.8,1.6A28.93,28.93,0,0,0,0,1V0A30.19,30.19,0,0,1,6,.62,30,30,0,0,1,30,30H29A29,29,0,0,0,5.8,1.6Z" transform="translate(0.01 -0.01)"/><path d="M2.51,17.76A12.82,12.82,0,0,0,0,17.51v-15a27.4,27.4,0,0,1,5.51.56A27.48,27.48,0,0,1,27.51,30h-15A12.5,12.5,0,0,0,2.51,17.76Zm1.43-7-.2,1a19.27,19.27,0,0,1,7,2.93l.56-.83A20.47,20.47,0,0,0,3.94,10.72Zm16,16a20.32,20.32,0,0,0-3-7.25l-.83.55A19.53,19.53,0,0,1,19,26.94Z" transform="translate(0.01 -0.01)"/></svg>