<svg xmlns="http://www.w3.org/2000/svg" viewBox="0 0 30.03 29.98"><title>path-curve-quarter-bottom-left</title><path d="M28,9.79a10.8,10.8,0,0,0,2,.2v1a11.29,11.29,0,0,1-2.22-.22A11,11,0,0,1,19,0h1A10,10,0,0,0,28,9.79Z" transform="translate(0.01 -0.01)"/><path d="M24.2,28.4A28.93,28.93,0,0,0,30,29v1a30.19,30.19,0,0,1-6-.61A30,30,0,0,1,0,0H1A29,29,0,0,0,24.2,28.4Z" transform="translate(0.01 -0.01)"/><path d="M27.49,12.24a12.82,12.82,0,0,0,2.52.25v15a27.4,27.4,0,0,1-5.51-.56A27.48,27.48,0,0,1,2.49,0h15A12.5,12.5,0,0,0,27.49,12.24Zm-1.43,7,.2-1a19.27,19.27,0,0,1-7-2.93l-.56.83A20.47,20.47,0,0,0,26.06,19.28Zm-16-16a20.32,20.32,0,0,0,3,7.25l.83-.55A19.53,19.53,0,0,1,11,3.06Z" transform="translate(0.01 -0.01)"/></svg>