<svg xmlns="http://www.w3.org/2000/svg" viewBox="0 0 30.03 60"><title>path-curve-reverse</title><path d="M27.78,19.22A11.21,11.21,0,0,1,30,19v1a10,10,0,1,0,0,20v1a11,11,0,0,1-2.22-21.78Z" transform="translate(0.03 0)"/><path d="M24,.61A30.19,30.19,0,0,1,30,0V1a29,29,0,1,0,0,58v1A30,30,0,0,1,24,.61Z" transform="translate(0.03 0)"/><path d="M24.49,3.06A27.33,27.33,0,0,1,30,2.5v15a12.82,12.82,0,0,0-2.52.25A12.5,12.5,0,0,0,30,42.5v15A27.5,27.5,0,0,1,24.49,3.06ZM19.22,14.62a19.61,19.61,0,0,1,7-2.94l-.2-1a20.44,20.44,0,0,0-7.37,3.09Zm6.86,36.27.19-1a19.37,19.37,0,0,1-6.9-2.86l-.55.83A20.42,20.42,0,0,0,26.08,50.89ZM13.13,42.25,14,41.7a19.42,19.42,0,0,1-2.93-7l-1,.19A20.4,20.4,0,0,0,13.13,42.25ZM11,26.93A19.37,19.37,0,0,1,13.87,20L13,19.47a20.57,20.57,0,0,0-3,7.26Z" transform="translate(0.03 0)"/></svg>