<svg xmlns="http://www.w3.org/2000/svg" viewBox="0 0 30.03 60"><title>path-curve</title><path d="M2.19,19.22A11.21,11.21,0,0,0,0,19v1a10,10,0,0,1,2,.2A10,10,0,0,1,9.8,32,10,10,0,0,1,0,40v1a11,11,0,0,0,10.81-8.81A11,11,0,0,0,2.19,19.22Z" transform="translate(0.03 0)"/><path d="M6,.61A30.19,30.19,0,0,0,0,0V1a28.86,28.86,0,0,1,5.81.59A29,29,0,0,1,28.41,35.78,29,29,0,0,1,0,59v1A30,30,0,0,0,29.39,36,30,30,0,0,0,6,.61Z" transform="translate(0.03 0)"/><path d="M5.48,3.06A27.33,27.33,0,0,0,0,2.5v15a12.74,12.74,0,0,1,2.52.25,12.51,12.51,0,0,1,9.76,14.74A12.5,12.5,0,0,1,0,42.5v15a27.5,27.5,0,0,0,27-22A27.48,27.48,0,0,0,5.48,3.06Zm5.27,11.56a19.61,19.61,0,0,0-7-2.94l.2-1a20.44,20.44,0,0,1,7.37,3.09ZM3.89,50.89l-.19-1a19.37,19.37,0,0,0,6.9-2.86l.55.83A20.42,20.42,0,0,1,3.89,50.89Zm13-8.64L16,41.7a19.42,19.42,0,0,0,2.93-7l1,.19A20.4,20.4,0,0,1,16.84,42.25ZM19,26.93A19.37,19.37,0,0,0,16.1,20l.83-.56a20.57,20.57,0,0,1,3,7.26Z" transform="translate(0.03 0)"/></svg>