<svg xmlns="http://www.w3.org/2000/svg" viewBox="0 0 30 40"><title>path-arrow</title><polygon points="2.25 36.98 2.25 3.04 27.17 20.01 2.25 36.98"/><rect y="11.6" width="2.25" height="15"/><path d="M29.33,18.7,2.28.25A1.42,1.42,0,0,0,.81.17,1.56,1.56,0,0,0,0,1.55V10.1H1V1.55A.59.59,0,0,1,1.26,1,.6.6,0,0,1,1.48,1a.45.45,0,0,1,.25.08L28.79,19.51a.62.62,0,0,1,0,1L1.73,38.94a.43.43,0,0,1-.47,0A.59.59,0,0,1,1,38.45V28.1H0V38.45a1.56,1.56,0,0,0,.81,1.38,1.45,1.45,0,0,0,.67.17,1.42,1.42,0,0,0,.8-.25L29.33,21.3a1.6,1.6,0,0,0,0-2.6Z" transform="translate(0 0)"/></svg>