<svg xmlns="http://www.w3.org/2000/svg" viewBox="0 0 30.03 29.98"><title>path-curve-quarter-top-left</title><path d="M28,20.21a10.8,10.8,0,0,1,2-.2V19a11.29,11.29,0,0,0-2.22.22A11,11,0,0,0,19,30h1A10,10,0,0,1,28,20.21Z" transform="translate(0.01 -0.01)"/><path d="M24.2,1.6A28.93,28.93,0,0,1,30,1V0A30,30,0,0,0,0,30H1A29,29,0,0,1,24.2,1.6Z" transform="translate(0.01 -0.01)"/><path d="M27.49,17.76A12.82,12.82,0,0,1,30,17.51v-15A27.54,27.54,0,0,0,2.49,30h15A12.5,12.5,0,0,1,27.49,17.76Zm-1.43-7,.2,1a19.27,19.27,0,0,0-7,2.93l-.56-.83A20.47,20.47,0,0,1,26.06,10.72Zm-16,16a20.32,20.32,0,0,1,3-7.25l.83.55A19.53,19.53,0,0,0,11,26.94Z" transform="translate(0.01 -0.01)"/></svg>