<svg xmlns="http://www.w3.org/2000/svg" viewBox="0 0 170 150"><title>snowman</title><path d="M109.68,71.6s24.62-12.87,25.83-13.87,2.88-22.75,3.88-23.64,2.76-.44,2.43.44-3.65,22.32-3.65,22.32C148.65,50.32,158.6,44.77,169,38.18c0,0,1.38,1.16.83,2.49S140.1,58.34,139,59.23s-2.71,2.09-2.71,2.09,21.08,3.87,21.08,5-.39,1.82-.64,1.79-20.42-4.33-20.89-4.56a5.41,5.41,0,0,0-2.4,0c-.36.13-22,9.94-22,9.94Z" fill="#48230e" fill-rule="evenodd"/><ellipse cx="84.72" cy="101.38" rx="47.77" ry="48.62" fill="#e1dfde"/><path d="M120.74,133.25a48.92,48.92,0,0,0,11.75-31.87c0-26.78-21.46-48.63-47.77-48.63a46.87,46.87,0,0,0-26.07,7.92A48.94,48.94,0,0,0,46.91,92.54c0,26.78,21.46,48.62,47.77,48.62A46.83,46.83,0,0,0,120.74,133.25Z" fill="#eeeeef" fill-rule="evenodd"/><path d="M63,58.11c-1,.54-5.26,3.2-5.26,3.2A11,11,0,0,0,61,65.63c2.24,1.66,23.43,4.89,32.17,4.23s14.33-.94,14.33-.94,2.71,10.44,3.81,18.06a59.38,59.38,0,0,1,.75,12l12.2-2.6s-8-27.12-9.68-30.11a17.27,17.27,0,0,0-4.76-5.08Z" fill="#e1dfde" fill-rule="evenodd"/><path d="M122.52,95.42l4.08.59s.8,7.25.66,8-1.13,1.39-1.18.42c0-.35.43-5.55-.34-5.38-.25,0-.27,5.27-.45,6.09s-.94.5-.91-.13.64-5.82.14-5.94-.65,2.76-.66,4.15a14.42,14.42,0,0,1-.07,2.51c-.26.84-.83.31-.83-.85,0-.77.34-5.53-.18-5.71s-1.16,4.57-1.14,5.65,0,1.38-.47,1.31.14-6.36-.36-6.69-.58,1.41-.83,3.25.57,3.94-.51,4,.13-7-.57-7.14-1,1.16-1.09,3.26.54,4.24-.54,4.34-.41-6.55-.66-7.12-.46-.51-.65.24-.37,5.19-.87,6-.8.22-.69-.86.06-5.36-.29-5.49-.46,1.88-.79,3.5,0,3.3-.56,3.21-.49-3.19-.41-4.65a24,24,0,0,0-.28-3.19C112.12,98.57,122.52,95.42,122.52,95.42Z" fill="#e1dfde" fill-rule="evenodd"/><ellipse cx="85.66" cy="39.82" rx="28" ry="28.5" fill="#f6f3f3"/><path d="M113.25,44.7a29,29,0,0,0,.41-4.88c0-15.7-12.58-28.5-28-28.5A28,28,0,0,0,61.5,25.44a29,29,0,0,0-.41,4.88c0,15.7,12.58,28.5,28,28.5A28,28,0,0,0,113.25,44.7Z" fill="#fff" fill-rule="evenodd"/><path d="M91.41,30.55c7.17,0,21.76-1.32,25-1.15.47,0,.86.11.9.21s-.1.36-.7.78c-1.22.84-19.44,8.07-22.5,9C89.21,40.93,87.88,31.47,91.41,30.55Z" fill="#ea7f01" fill-rule="evenodd"/><path d="M82.31,30.44a2.7,2.7,0,1,0-2.64-2.69A2.68,2.68,0,0,0,82.31,30.44Z" fill="#343231" fill-rule="evenodd"/><path d="M60.78,53.43a5.33,5.33,0,0,0-1.44,2.94c-.12.75-.56.66-1.12,1.88a5.17,5.17,0,0,0-.51,3c1.25,6.84,32.67,8.78,49.51,5.55,7.24-1.4,6.83-3.24,6.77-4.38s-1.5-.89-2.21-3.77,1.16-4.78-1.39-4.45C71.13,59.35,62.76,51.75,60.78,53.43Z" fill="#ce2313" fill-rule="evenodd"/><path d="M59.23,56.74a9.18,9.18,0,0,0-1,1.51,5.17,5.17,0,0,0-.51,3c1.25,6.84,32.67,8.78,49.51,5.55A27.88,27.88,0,0,0,110.6,66a18.74,18.74,0,0,0-1.92-5,13.47,13.47,0,0,0-8.33-5.68l-.51,0,5.58,9.46s-24,.94-34.47-2-11.72-6.1-11.72-6.1Z" fill="#ab2d1f" fill-rule="evenodd"/><path d="M123.26,94l4.09.59s.79,7.25.66,8-1.13,1.4-1.19.43c0-.35.44-5.55-.34-5.38-.24.05-.26,5.27-.44,6.09s-.94.5-.91-.13.64-5.82.14-6-.66,2.77-.67,4.15a14.47,14.47,0,0,1-.06,2.51c-.26.85-.84.31-.84-.85,0-.77.35-5.52-.18-5.7s-1.16,4.56-1.13,5.64,0,1.38-.47,1.31.14-6.36-.36-6.68-.58,1.41-.83,3.24.57,4-.51,4,.12-7-.57-7.14-1,1.16-1.09,3.26.54,4.24-.54,4.34-.42-6.55-.66-7.13-.46-.51-.65.25-.38,5.19-.88,6-.8.22-.69-.86.07-5.36-.29-5.49-.45,1.88-.79,3.49,0,3.31-.55,3.22-.5-3.2-.41-4.65a23.39,23.39,0,0,0-.29-3.2C112.87,97.1,123.26,94,123.26,94Z" fill="#efa200" fill-rule="evenodd"/><path d="M99.69,55.38c.21-.86,3-2.12,5.51-2.72,14.62-3.51,22.15,41.89,22.15,41.89s-14.71,3.54-14.54,2.74C114.82,87.91,109.26,60.47,99.69,55.38Z" fill="#e50c00" fill-rule="evenodd"/><path d="M99.75,55.23h0A13.27,13.27,0,0,1,108.68,61c3.55,5.25,6.84,33.48,6.51,35.45a7.13,7.13,0,0,1-.18.74c-1.35.22-2.24.29-2.2.09,2-9.3-3.46-36.37-12.88-41.77Z" fill="#cc2414" fill-rule="evenodd"/><path d="M55.6,71.77c-5.14-.88-27.22-12.7-30.2-14.91-.25-.19-.52-.37-.81-.55-.88-3.14-5.18-13.07-6.67-19.28-1.77-7.41-.88-7.63-1.21-8.29s-1.77,1.1-2.44,2.43c-.57,1.15,5.58,18.28,6.93,23.4-2.74-1.23-5.69-2.29-7.09-3.13C11.89,50.12,4.81,46,3.93,45.26S0,45.48,0,45.48s11.45,7,13.11,8,9.57,4.64,10.9,5.64c.18.13.75.45,1.58.9-3.39.67-10.74,2.18-14.42,3.35-4.86,1.55-7,2.26-7,2.76s.72,1.66,1.66,1.16,11.75-3.48,15.27-4.45c2.51-.69,5.52-1.12,7.06-1.49,6.74,3.5,19.43,9.87,21.1,11.24a18.47,18.47,0,0,0,4.65,3C55.82,76.58,57.82,72.6,55.6,71.77Z" fill="#48230e" fill-rule="evenodd"/><path d="M20.47,62c-4.31.82-11.73,3.37-16,4.83a1,1,0,0,0,1.35.39c.94-.5,11.75-3.48,15.27-4.45,2.51-.69,5.52-1.12,7.06-1.49,5.47,2.84,14.87,7.57,19.1,10a19,19,0,0,1,2,1.25,18.47,18.47,0,0,0,4.65,3c1.26.65,2.56-.83,2.68-2.16a7.07,7.07,0,0,1-5.26-1c-.71-.39-2-1.06-3.51-1.87-6.77-3.55-19.42-10-19.42-10S26.53,60.86,20.47,62Z" fill="#2d1503" fill-rule="evenodd"/><path d="M14.27,31.17c-.57,1.15,5.58,18.28,6.93,23.4-2.74-1.23-5.69-2.29-7.09-3.13C11.89,50.12,4.81,46,3.93,45.26c-.71-.63-2.82-.1-3.62.12l2.12.43c1.77.33,2.77,1.27,6.36,3.53s13.42,6.21,13.42,6.21-4.43-13.81-5-17.06-.91-9.85-.91-9.85A6.49,6.49,0,0,0,14.27,31.17Z" fill="#391c08" fill-rule="evenodd"/><path d="M136.29,61.32s1.6-1.21,2.71-2.09S169.32,42,169.87,40.67A1.81,1.81,0,0,0,170,40s-35.18,20.47-35.13,21S136,62.4,136,62.4s17,3.66,21.35,4.44a4.56,4.56,0,0,0,0-.54C157.37,65.19,136.29,61.32,136.29,61.32Z" fill="#2d1503" fill-rule="evenodd"/><path d="M136.29,58.56l33.33-19.7a3.3,3.3,0,0,0-.58-.68c-10.44,6.59-20.39,12.14-30.87,18.67,0,0,3.32-21.43,3.65-22.32.16-.41-.15-.73-.63-.86-.83,5.33-3.57,22.69-4,23.37S136.29,58.56,136.29,58.56Z" fill="#41200b" fill-rule="evenodd"/><path d="M133.71,62.59c-.49.13-9,3.91-13.35,5.85.1.27.21.54.31.82,5.94-2.69,12.57-5.68,12.77-5.75a5.41,5.41,0,0,1,2.4,0c.47.23,20.64,4.53,20.89,4.56s.28-.16.41-.47C157.14,67.62,134.38,62.43,133.71,62.59Z" fill="#2d1503" fill-rule="evenodd"/><path d="M89.47,35.13c.3,2.59,1.91,5.13,4.62,4.28,2.25-.69,12.68-4.79,18.54-7.24,2.12-.89,3.64-1.56,4-1.78a2.38,2.38,0,0,0,.66-.59l-1.63.48c-.68.2-1.92.67-3.2,1.15a23.81,23.81,0,0,1-4.3,1.39c-1,0-1.21-1.72-1.21-2.35a24.88,24.88,0,0,0-.34,3.15c0,.36-3.87,1.68-4.56,1.41s-1.42-2.82-1.45-3.52c-.11.75-.67,3.88-.63,4.48s-2.62,1.44-3.56.69-1.67-4.07-1.72-4.83c-.05.92-.43,6.37-.3,6.55s-1,.08-2.52-1A10.74,10.74,0,0,1,89.47,35.13Z" fill="#d36c16" fill-rule="evenodd"/><path d="M82.66,29.7a2.24,2.24,0,1,0-2.19-2.24A2.23,2.23,0,0,0,82.66,29.7Z" fill="#3e3b39" fill-rule="evenodd"/><path d="M99.63,29.56A2.7,2.7,0,1,0,97,26.86,2.68,2.68,0,0,0,99.63,29.56Z" fill="#343231" fill-rule="evenodd"/><path d="M100,28.81a2.23,2.23,0,1,0-2.19-2.23A2.22,2.22,0,0,0,100,28.81Z" fill="#3e3b39" fill-rule="evenodd"/><path d="M105.08,45.81a1.35,1.35,0,1,0-1.32-1.35A1.35,1.35,0,0,0,105.08,45.81Z" fill="#343231" fill-rule="evenodd"/><path d="M105.26,45.44a1.12,1.12,0,1,0-1.1-1.12A1.11,1.11,0,0,0,105.26,45.44Z" fill="#3e3b39" fill-rule="evenodd"/><path d="M99.45,48.49a1.35,1.35,0,1,0-1.32-1.35A1.34,1.34,0,0,0,99.45,48.49Z" fill="#343231" fill-rule="evenodd"/><path d="M99.63,48.11A1.12,1.12,0,1,0,98.53,47,1.1,1.1,0,0,0,99.63,48.11Z" fill="#3e3b39" fill-rule="evenodd"/><path d="M93.09,49a1.35,1.35,0,1,0-1.33-1.34A1.33,1.33,0,0,0,93.09,49Z" fill="#343231" fill-rule="evenodd"/><ellipse cx="93.26" cy="47.49" rx="1.1" ry="1.12" fill="#3e3b39"/><path d="M85.84,48.43a1.35,1.35,0,1,0-1.32-1.35A1.34,1.34,0,0,0,85.84,48.43Z" fill="#343231" fill-rule="evenodd"/><path d="M86,48.06a1.12,1.12,0,1,0-1.1-1.12A1.11,1.11,0,0,0,86,48.06Z" fill="#3e3b39" fill-rule="evenodd"/><path d="M79.42,45.5a1.35,1.35,0,1,0-1.32-1.34A1.33,1.33,0,0,0,79.42,45.5Z" fill="#343231" fill-rule="evenodd"/><path d="M79.6,45.13A1.12,1.12,0,1,0,78.5,44,1.11,1.11,0,0,0,79.6,45.13Z" fill="#3e3b39" fill-rule="evenodd"/><path d="M96.63,86.45A4.68,4.68,0,1,0,92,81.77,4.65,4.65,0,0,0,96.63,86.45Z" fill="#343231" fill-rule="evenodd"/><path d="M97.24,85.16a3.88,3.88,0,1,0-3.81-3.88A3.85,3.85,0,0,0,97.24,85.16Z" fill="#3e3b39" fill-rule="evenodd"/><path d="M101.27,108.11a4.68,4.68,0,1,0-4.59-4.68A4.64,4.64,0,0,0,101.27,108.11Z" fill="#343231" fill-rule="evenodd"/><path d="M101.89,106.82a3.88,3.88,0,1,0-3.81-3.88A3.86,3.86,0,0,0,101.89,106.82Z" fill="#3e3b39" fill-rule="evenodd"/><path d="M98.25,129.47a4.68,4.68,0,1,0-4.6-4.68A4.64,4.64,0,0,0,98.25,129.47Z" fill="#343231" fill-rule="evenodd"/><path d="M98.86,128.18a3.88,3.88,0,1,0-3.81-3.88A3.85,3.85,0,0,0,98.86,128.18Z" fill="#3e3b39" fill-rule="evenodd"/><path d="M94,8.08C92,6.2,77,.13,71.4,0,40.46-.59,53.86,14.25,45.29,25.1c-6.64,8.39-1.44,17.12,1.21,17.56S44,33.38,48.94,30.84A26,26,0,0,1,57.12,28S71,12,79.25,10.18A104,104,0,0,1,94,8.08Z" fill="#6e1c14" fill-rule="evenodd"/><path d="M99.61,15.12s-16.37-2.18-27.44,5.56S57.86,36.37,57.86,36.37C44.79,30.5,62,14.67,69,10.84c13.17-7.18,25-6.62,30.1-2.32S99.61,15.12,99.61,15.12Z" fill="#dbd2cf" fill-rule="evenodd"/><path d="M44.79,31.73c-1.5,3,1.82,9.83,1.38,10.44a1.16,1.16,0,0,1-.3.26,1.94,1.94,0,0,0,.63.23c2.66.45-2.54-9.28,2.44-11.82A37.06,37.06,0,0,1,53.17,29c1-6.91,10.88-15.48,15.79-18.16,7.38-4,14.34-5.61,19.93-5.48a97.11,97.11,0,0,0-10.3-3.85,4,4,0,0,0,0,2.71c.28,1.1-12,2.65-19.31,9.06S53.2,25.43,52.92,25.76s-2.38-3-2.38-3-.33,3.7-1.27,5S46.28,28.69,44.79,31.73Z" fill="#601710" fill-rule="evenodd"/><path d="M53.17,29c-.43,3,.78,5.61,4.69,7.37,0,0,3.25-8,14.31-15.69s27.44-5.56,27.44-5.56,3-1.49,1.42-4.33a10.76,10.76,0,0,1-5.56,2.34c-4.51.34-19-.22-29.22,8.38A45.84,45.84,0,0,0,60.65,27c-3.75,4.49-3,6.12-5.08,4.86a4,4,0,0,1-2-3A5.13,5.13,0,0,1,53.7,27l-.19.57A9.25,9.25,0,0,0,53.17,29Z" fill="#a29d9d" fill-rule="evenodd"/><path d="M46.71,48.47a4.31,4.31,0,1,0-4.43-4.31A4.38,4.38,0,0,0,46.71,48.47Z" fill="#fff" fill-rule="evenodd"/><path d="M49.67,42.7A4.37,4.37,0,0,1,45.25,47a4.44,4.44,0,0,1-2.35-.66,4.44,4.44,0,0,0,3.81,2.12,4.37,4.37,0,0,0,4.43-4.31,4.28,4.28,0,0,0-2.08-3.65A4.19,4.19,0,0,1,49.67,42.7Z" fill="#ebebed" fill-rule="evenodd"/></svg>