<svg xmlns="http://www.w3.org/2000/svg" viewBox="0 0 49.02 49.02"><title>sun</title><path d="M.51,30c.26,1.26,3.38,1.32,5.06,2a.4.4,0,0,0,.52-.5,19.66,19.66,0,0,1-1-5.11.39.39,0,0,0-.68-.24C3.08,27.49.25,28.78.51,30Z" transform="translate(-0.49 -0.49)" /><path d="M11,45.73c1,.7,3.29-1.45,5-2.16a.39.39,0,0,0,0-.71,20.27,20.27,0,0,1-4.16-2.81.39.39,0,0,0-.65.29C11.14,42.14,10,45,11,45.73Z" transform="translate(-0.49 -0.49)" /><path d="M.51,20c-.26,1.26,2.57,2.55,3.86,3.87a.39.39,0,0,0,.68-.24,19.66,19.66,0,0,1,1-5.11.4.4,0,0,0-.52-.5C3.89,18.64.77,18.7.51,20Z" transform="translate(-0.49 -0.49)" /><path d="M4.27,11c-.7,1,1.45,3.29,2.16,5a.39.39,0,0,0,.71,0A20.27,20.27,0,0,1,10,11.83a.39.39,0,0,0-.29-.65C7.86,11.14,5,10,4.27,11Z" transform="translate(-0.49 -0.49)" /><path d="M45.73,39c.7-1-1.45-3.29-2.16-4.95a.39.39,0,0,0-.71,0,20.27,20.27,0,0,1-2.81,4.16.39.39,0,0,0,.29.65C42.14,38.86,45,40,45.73,39Z" transform="translate(-0.49 -0.49)" /><path d="M20,49.49c1.26.26,2.55-2.57,3.87-3.86a.39.39,0,0,0-.24-.68,19.66,19.66,0,0,1-5.11-1,.4.4,0,0,0-.5.52C18.64,46.11,18.7,49.23,20,49.49Z" transform="translate(-0.49 -0.49)" /><path d="M39,45.73c1-.7-.12-3.59-.16-5.39a.39.39,0,0,0-.65-.29A20.27,20.27,0,0,1,34,42.86a.39.39,0,0,0,0,.71C35.69,44.28,38,46.43,39,45.73Z" transform="translate(-0.49 -0.49)" /><path d="M30,49.49c1.26-.26,1.32-3.38,2-5.06a.4.4,0,0,0-.5-.52,19.66,19.66,0,0,1-5.11,1,.39.39,0,0,0-.24.68C27.49,46.92,28.78,49.75,30,49.49Z" transform="translate(-0.49 -0.49)" /><path d="M4.27,39c.7,1,3.59-.12,5.39-.16a.39.39,0,0,0,.29-.65A20.27,20.27,0,0,1,7.14,34a.39.39,0,0,0-.71,0C5.72,35.69,3.57,38,4.27,39Z" transform="translate(-0.49 -0.49)" /><path d="M45.73,11c-.7-1-3.59.12-5.39.16a.39.39,0,0,0-.29.65A20.27,20.27,0,0,1,42.86,16a.39.39,0,0,0,.71,0C44.28,14.31,46.43,12.05,45.73,11Z" transform="translate(-0.49 -0.49)" /><path d="M49.49,20c-.26-1.26-3.38-1.32-5.06-2a.4.4,0,0,0-.52.5,19.66,19.66,0,0,1,1,5.11.39.39,0,0,0,.68.24C46.92,22.51,49.75,21.22,49.49,20Z" transform="translate(-0.49 -0.49)" /><path d="M45,26.41a19.66,19.66,0,0,1-1,5.11.4.4,0,0,0,.52.5c1.68-.66,4.8-.72,5.06-2s-2.57-2.55-3.86-3.87A.39.39,0,0,0,45,26.41Z" transform="translate(-0.49 -0.49)" /><path d="M11,4.27c-1,.7.12,3.59.16,5.39a.39.39,0,0,0,.65.29A19.87,19.87,0,0,1,16,7.14a.39.39,0,0,0,0-.71C14.31,5.72,12.05,3.57,11,4.27Z" transform="translate(-0.49 -0.49)" /><path d="M39,4.27c-1-.7-3.29,1.45-4.95,2.16a.39.39,0,0,0,0,.71A20.27,20.27,0,0,1,38.17,10a.39.39,0,0,0,.65-.29C38.86,7.86,40,5,39,4.27Z" transform="translate(-0.49 -0.49)" /><path d="M20,.51c-1.21.25-1.31,3.15-1.91,4.87a.4.4,0,0,0,.46.53l5-1a.4.4,0,0,0,.2-.67C22.42,2.87,21.17.26,20,.51Z" transform="translate(-0.49 -0.49)" /><path d="M30,.51c-1.26-.26-2.55,2.57-3.87,3.86a.39.39,0,0,0,.24.68,19.66,19.66,0,0,1,5.11,1,.4.4,0,0,0,.5-.52C31.36,3.89,31.3.77,30,.51Z" transform="translate(-0.49 -0.49)" /><circle cx="24.51" cy="24.51" r="19" /></svg>
